<?xml version="1.0" encoding="UTF-8"?>
<svg version="1.1" xmlns="http://www.w3.org/2000/svg" width="229" height="316">
<path d="M0 0 C0.66 0 1.32 0 2 0 C1.44650514 3.93152534 0.63853109 7.29748514 -0.9375 10.9375 C-1.60458984 12.48824219 -1.60458984 12.48824219 -2.28515625 14.0703125 C-2.67985107 14.97378418 -2.67985107 14.97378418 -3.08251953 15.89550781 C-4.16667673 18.38231863 -5.23738382 20.87477265 -6.30859375 23.3671875 C-7.16353768 25.3491848 -8.01901201 27.33095339 -8.875 29.3125 C-9.27323975 30.23603271 -9.67147949 31.15956543 -10.08178711 32.11108398 C-12.39272531 37.43007111 -14.7852774 42.70146858 -17.25390625 47.94921875 C-21.2777495 56.51018421 -25.0908104 65.16169246 -28.88891602 73.82470703 C-30.06152956 76.49778779 -31.23862185 79.16886565 -32.41601562 81.83984375 C-36.37503758 90.84532024 -40.22470438 99.8715481 -43.80029297 109.03662109 C-45.04180172 112.10325383 -46.46456696 114.99337465 -48.0078125 117.9140625 C-49.81325968 121.70976642 -51.15279303 125.69845565 -52.55859375 129.65625 C-55.85441574 137.30184249 -59.67691715 142.13032559 -66.5 146.875 C-67.93032722 147.90666574 -69.36000573 148.93923141 -70.7890625 149.97265625 C-71.49836914 150.47941895 -72.20767578 150.98618164 -72.93847656 151.50830078 C-75.97384978 153.70466866 -78.92309677 156.00592144 -81.875 158.3125 C-87.13752996 162.37929906 -92.50508803 166.25403292 -98 170 C-104.60191753 166.51898894 -110.82639212 162.58042258 -117.06958008 158.50488281 C-122.55389038 154.92653485 -128.07842513 151.41841905 -133.625 147.9375 C-141.84833868 142.76661255 -149.94331298 137.4257354 -158 132 C-160.48560266 130.35076905 -162.97251344 128.70356322 -165.4609375 127.05859375 C-167 126 -167 126 -168 125 C-168.09530981 121.95597578 -168.12551639 118.93468292 -168.11352539 115.89038086 C-168.11367142 114.93438492 -168.11381744 113.97838898 -168.1139679 112.99342346 C-168.11326835 109.81720755 -168.10547403 106.64104948 -168.09765625 103.46484375 C-168.09579222 101.26908907 -168.09436825 99.07333398 -168.09336853 96.87757874 C-168.08954219 91.08579367 -168.07971091 85.2940335 -168.06866455 79.5022583 C-168.05845293 73.59721209 -168.05387145 67.69216187 -168.04882812 61.78710938 C-168.03808875 50.19139528 -168.02101093 38.59569971 -168 27 C-163.60527753 25.96855471 -161.48666481 26.24723182 -157.28515625 28 C-156.14143555 28.46817139 -154.99771484 28.93634277 -153.81933594 29.41870117 C-152.56703653 29.94575146 -151.31475849 30.47285251 -150.0625 31 C-148.08123181 31.81701168 -146.09807193 32.62932107 -144.11489868 33.44169617 C-142.69920799 34.02211884 -141.2841635 34.60411979 -139.86972046 35.18757629 C-130.706318 38.96276579 -121.47469102 42.56541177 -112.25 46.1875 C-108.98380286 47.47120741 -105.7182915 48.75664253 -102.453125 50.04296875 C-101.72739792 50.32786667 -101.00167084 50.61276459 -100.25395203 50.90629578 C-95.22624374 52.88687813 -95.22624374 52.88687813 -93 54 C-91.55246813 62.25093166 -91.90780998 70.65168141 -92 79 C-96.02925799 80.62928361 -98.66914237 79.26603934 -102.57421875 77.71875 C-103.21155945 77.46957825 -103.84890015 77.22040649 -104.5055542 76.96368408 C-106.57059919 76.15313088 -108.62895928 75.32691602 -110.6875 74.5 C-112.09544982 73.94348844 -113.50373516 73.38782502 -114.91235352 72.83300781 C-124.64776835 68.98734648 -134.35594969 65.06970325 -144 61 C-143.9278125 61.58007812 -143.855625 62.16015625 -143.78125 62.7578125 C-143.2533613 67.20087574 -142.88503374 71.51631578 -143 76 C-140.43954067 77.44123535 -137.87716757 78.87877866 -135.3125 80.3125 C-134.52045166 80.75529297 -133.72840332 81.19808594 -132.91235352 81.65429688 C-125.57024954 85.7328474 -118.13166943 89.61537998 -110.64379883 93.41918945 C-109.79068115 93.85835693 -108.93756348 94.29752441 -108.05859375 94.75 C-107.29861084 95.13671875 -106.53862793 95.5234375 -105.75561523 95.921875 C-104 97 -104 97 -103 99 C-102.91657841 100.44848582 -102.89267139 101.90070869 -102.90234375 103.3515625 C-102.90717773 104.62773437 -102.90717773 104.62773437 -102.91210938 105.9296875 C-102.92467773 107.26386719 -102.92467773 107.26386719 -102.9375 108.625 C-102.94201172 109.5221875 -102.94652344 110.419375 -102.95117188 111.34375 C-102.96297409 113.56256648 -102.97943845 115.78125018 -103 118 C-107.5889335 118 -110.47396795 116.56413989 -114.46875 114.5703125 C-115.186073 114.21991913 -115.903396 113.86952576 -116.64245605 113.5085144 C-118.93198454 112.38800285 -121.21597156 111.25667381 -123.5 110.125 C-125.0374092 109.37037779 -126.57516606 108.61646343 -128.11328125 107.86328125 C-133.41868617 105.26201683 -138.71834809 102.64923623 -144 100 C-143.67 100.99 -143.34 101.98 -143 103 C-143.04573175 105.25748555 -143.19162988 107.49426185 -143.35546875 109.74609375 C-142.85245747 112.93551689 -141.40423833 113.87582349 -139 116 C-137.04441486 117.22790964 -135.04563178 118.38839704 -133.01953125 119.49609375 C-132.44724289 119.81151627 -131.87495453 120.12693878 -131.2853241 120.45191956 C-129.46451986 121.45359946 -127.63870921 122.44571491 -125.8125 123.4375 C-124.60577049 124.09897255 -123.39938703 124.76107679 -122.19335938 125.42382812 C-119.86718282 126.70109665 -117.53898043 127.97439291 -115.20947266 129.24560547 C-111.12816802 131.47656965 -107.06136761 133.73298806 -103 136 C-96.02380961 119.73319867 -89.2588843 103.38368259 -82.5625 87 C-82.16855042 86.0363855 -81.77460083 85.072771 -81.36871338 84.07995605 C-80.22555455 81.2827653 -79.08322466 78.48523816 -77.94140625 75.6875 C-77.60318344 74.85905579 -77.26496063 74.03061157 -76.91648865 73.17706299 C-72.41971375 62.17698939 -72.41971375 62.17698939 -68.17578125 51.078125 C-67.55556109 49.46841313 -66.93446962 47.85903671 -66.3125 46.25 C-66.02439453 45.43917969 -65.73628906 44.62835938 -65.43945312 43.79296875 C-62.80403607 37.13678193 -59.16323587 34.40897608 -53 31 C-52.24904053 30.5570459 -51.49808105 30.1140918 -50.72436523 29.65771484 C-48.35234068 28.26407749 -45.96090796 26.91018355 -43.5625 25.5625 C-41.72870163 24.52556156 -39.89539254 23.4877575 -38.0625 22.44921875 C-37.09183594 21.89927246 -36.12117187 21.34932617 -35.12109375 20.78271484 C-31.75639744 18.86085842 -28.40779945 16.91234965 -25.0625 14.95703125 C-23.88734372 14.27195915 -22.71213234 13.58698157 -21.53686523 12.90209961 C-19.25713708 11.57354188 -16.98140077 10.23883254 -14.70727539 8.90063477 C-13.66047607 8.29147217 -12.61367676 7.68230957 -11.53515625 7.0546875 C-10.610979 6.51312012 -9.68680176 5.97155273 -8.73461914 5.41357422 C-5.88421256 3.94014738 -3.06521432 2.93442372 0 2 C0 1.34 0 0.68 0 0 Z " fill="#024CA3" transform="translate(200,83)"/>
<path d="M0 0 C1.59583584 0.60495738 3.18706251 1.22221373 4.7734375 1.8515625 C5.5675 2.15578125 6.3615625 2.46 7.1796875 2.7734375 C8.75487313 3.37768904 10.32816509 3.98690289 11.89941406 4.60131836 C14.00468663 5.4206195 16.11692603 6.2167092 18.234375 7.00390625 C22.23061669 8.49639442 26.19138473 10.07101442 30.1484375 11.6640625 C30.82777344 11.93669922 31.50710937 12.20933594 32.20703125 12.49023438 C33.8544902 13.15153832 35.5015116 13.81393216 37.1484375 14.4765625 C35.6735979 18.37465279 33.7650311 19.56629394 30.125 21.46484375 C29.10873535 22.00343018 28.0924707 22.5420166 27.04541016 23.09692383 C25.96565918 23.65532959 24.8859082 24.21373535 23.7734375 24.7890625 C21.58512759 25.94377894 19.39761814 27.10001369 17.2109375 28.2578125 C16.16164063 28.81082031 15.11234375 29.36382812 14.03125 29.93359375 C9.64135159 32.28320062 5.37721913 34.81212767 1.125 37.40234375 C-0.8515625 38.4765625 -0.8515625 38.4765625 -2.8515625 38.4765625 C-2.8515625 39.1365625 -2.8515625 39.7965625 -2.8515625 40.4765625 C-0.8715625 40.4765625 1.1084375 40.4765625 3.1484375 40.4765625 C3.1484375 39.8165625 3.1484375 39.1565625 3.1484375 38.4765625 C4.0971875 38.4353125 5.0459375 38.3940625 6.0234375 38.3515625 C11.47548661 37.54024567 15.57358867 34.37983195 20.1484375 31.4765625 C29.01670116 26.0588851 37.95969923 20.93738611 47.30761719 16.39306641 C53.19032762 13.51638867 58.82033203 10.28136301 64.453125 6.9453125 C67.1484375 5.4765625 67.1484375 5.4765625 69.1484375 5.4765625 C69.1484375 6.1365625 69.1484375 6.7965625 69.1484375 7.4765625 C71.1284375 8.1365625 73.1084375 8.7965625 75.1484375 9.4765625 C75.1484375 10.4665625 75.1484375 11.4565625 75.1484375 12.4765625 C74.48948486 12.82847656 73.83053223 13.18039063 73.15161133 13.54296875 C70.08581008 15.18334507 67.02338289 16.82993014 63.9609375 18.4765625 C62.40729492 19.30607422 62.40729492 19.30607422 60.82226562 20.15234375 C55.35944606 23.09516296 50.00546055 26.14040547 44.73828125 29.421875 C38.52405297 33.29173547 32.16951301 36.85271003 25.74163818 40.34857178 C7.12368149 50.37024241 7.12368149 50.37024241 -10.8515625 61.4765625 C-16.09911025 60.72691282 -20.53797501 59.2587056 -25.390625 57.15625 C-31.60201744 54.53315566 -37.90157681 52.31498036 -44.2890625 50.1640625 C-53.72186162 46.94941904 -63.06904508 43.57360689 -72.35327148 39.9519043 C-73.15450439 39.640354 -73.9557373 39.32880371 -74.78125 39.0078125 C-75.82128174 38.59885742 -75.82128174 38.59885742 -76.88232422 38.18164062 C-78.85308468 37.47601749 -80.81342588 36.94861204 -82.8515625 36.4765625 C-82.8515625 35.1565625 -82.8515625 33.8365625 -82.8515625 32.4765625 C-81.66626953 31.89261719 -81.66626953 31.89261719 -80.45703125 31.296875 C-73.66264123 27.92685755 -66.92380546 24.47321416 -60.2265625 20.9140625 C-50.72378934 15.86872957 -41.10097792 11.06954072 -31.45849609 6.29858398 C-30.31461426 5.73083252 -29.17073242 5.16308105 -27.9921875 4.578125 C-26.90873047 4.04477539 -25.82527344 3.51142578 -24.70898438 2.96191406 C-22.3858477 1.75429585 -20.30506647 0.4683699 -18.1484375 -1 C-12.04265929 -3.82139041 -6.15992251 -2.0967284 0 0 Z " fill="#0158CD" transform="translate(120.8515625,67.5234375)"/>
<path d="M0 0 C-0.65882148 5.08599927 -2.85113019 9.39766296 -4.984375 14 C-5.80742215 15.80172653 -6.62966266 17.60382172 -7.45117188 19.40625 C-7.87422607 20.33179688 -8.29728027 21.25734375 -8.7331543 22.2109375 C-10.73807131 26.62492324 -12.6914013 31.06119844 -14.640625 35.5 C-15.02069702 36.36488037 -15.40076904 37.22976074 -15.7923584 38.12084961 C-16.56023442 39.86928177 -17.32769135 41.61789804 -18.09472656 43.36669922 C-19.26214815 46.02769019 -20.43178478 48.68770033 -21.6015625 51.34765625 C-22.36471456 53.08587989 -23.12773803 54.82416 -23.890625 56.5625 C-24.25514771 57.39120605 -24.61967041 58.21991211 -24.99523926 59.07373047 C-27.43006923 64.63057531 -29.74128823 70.22023733 -31.92089844 75.8828125 C-33 78 -33 78 -36 80 C-37.22844823 82.4060889 -37.22844823 82.4060889 -38.1875 85.125 C-38.53167969 86.03507812 -38.87585938 86.94515625 -39.23046875 87.8828125 C-39.48441406 88.58148438 -39.73835938 89.28015625 -40 90 C-40.66 90 -41.32 90 -42 90 C-42 91.65 -42 93.3 -42 95 C-42.99 95.495 -42.99 95.495 -44 96 C-44.12375 96.7425 -44.2475 97.485 -44.375 98.25 C-45.15942187 101.70145622 -46.55067987 103.47864104 -49 106 C-49.99 106 -50.98 106 -52 106 C-52.433125 107.4540625 -52.433125 107.4540625 -52.875 108.9375 C-54 112 -54 112 -56 113 C-56 113.33 -56 113.66 -56 114 C-56.62648437 114.09796875 -57.25296875 114.1959375 -57.8984375 114.296875 C-58.71570313 114.44640625 -59.53296875 114.5959375 -60.375 114.75 C-61.59316406 114.95882812 -61.59316406 114.95882812 -62.8359375 115.171875 C-65.15143784 115.80735516 -65.15143784 115.80735516 -66.19921875 117.9375 C-66.46347656 118.618125 -66.72773437 119.29875 -67 120 C-68.4375 122.25 -68.4375 122.25 -70 124 C-70.99 124 -71.98 124 -73 124 C-73.33 124.99 -73.66 125.98 -74 127 C-76.0625 127.6875 -76.0625 127.6875 -78 128 C-78 128.66 -78 129.32 -78 130 C-78.99 130.33 -79.98 130.66 -81 131 C-80.66666667 129.66666667 -80.33333333 128.33333333 -80 127 C-79.896875 126.38125 -79.79375 125.7625 -79.6875 125.125 C-78.46429081 121.3441716 -76.20755311 118.07817242 -73.25 115.4375 C-71.7334274 114.01093631 -71.7334274 114.01093631 -72 111.5625 C-72 109 -72 109 -70.5859375 107.140625 C-68.83487247 104.7771185 -68.29862419 103.03509318 -67.625 100.1875 C-66.410384 95.43771216 -65.02994191 90.78052524 -63.5 86.125 C-62.89671875 84.27261719 -62.89671875 84.27261719 -62.28125 82.3828125 C-61.10945583 79.28899009 -59.73031826 76.8010374 -58 74 C-57.15491362 72.05550657 -56.34329545 70.09618851 -55.5625 68.125 C-54.19646055 64.77718393 -52.856781 61.54215811 -51 58.4375 C-47.83657168 53.00035757 -45.40636449 47.23164605 -42.8984375 41.46875 C-42.56070313 40.6953125 -42.22296875 39.921875 -41.875 39.125 C-41.58367187 38.44695312 -41.29234375 37.76890625 -40.9921875 37.0703125 C-40 35 -40 35 -38.4921875 32.66796875 C-36.75749511 29.56641141 -36.11509238 26.62889819 -35.25 23.1875 C-33.37478714 17.67725914 -31.5449546 15.10567272 -26.58300781 12.3605957 C-24.02225908 11.11147262 -21.43095544 9.95972587 -18.80517578 8.85449219 C-16.68574663 7.90962913 -16.68574663 7.90962913 -13.77734375 5.7890625 C-11 4 -11 4 -7 4 C-7 3.34 -7 2.68 -7 2 C-2.25 0 -2.25 0 0 0 Z " fill="#0269DE" transform="translate(189,114)"/>
<path d="M0 0 C0 0.66 0 1.32 0 2 C1.98 2.66 3.96 3.32 6 4 C6 4.99 6 5.98 6 7 C5.34104736 7.35191406 4.68209473 7.70382813 4.00317383 8.06640625 C0.93737258 9.70678257 -2.12505461 11.35336764 -5.1875 13 C-6.22326172 13.55300781 -7.25902344 14.10601562 -8.32617188 14.67578125 C-13.78899144 17.61860046 -19.14297695 20.66384297 -24.41015625 23.9453125 C-30.62438453 27.81517297 -36.97892449 31.37614753 -43.40679932 34.87200928 C-62.02475601 44.89367991 -62.02475601 44.89367991 -80 56 C-87.50029351 54.9285295 -94.10619023 52.05613902 -101 49 C-98.9783451 42.9350353 -91.32650277 40.07581917 -85.875 37.3125 C-82.95551108 35.88004048 -80.04620944 34.63126865 -77 33.5 C-73.80932297 32.26576327 -73.80932297 32.26576327 -72.5625 29.3125 C-72.376875 28.549375 -72.19125 27.78625 -72 27 C-71.34 27 -70.68 27 -70 27 C-69.67 26.01 -69.34 25.02 -69 24 C-67.1128125 23.87625 -67.1128125 23.87625 -65.1875 23.75 C-61.70956936 23.39197936 -61.70956936 23.39197936 -59.25 20.9375 C-58.63125 19.9784375 -58.63125 19.9784375 -58 19 C-56.68 19 -55.36 19 -54 19 C-53.505 17.515 -53.505 17.515 -53 16 C-51.68 16.66 -50.36 17.32 -49 18 C-48.505 16.515 -48.505 16.515 -48 15 C-47.34 14.67 -46.68 14.34 -46 14 C-45.34227572 10.97065509 -45.34227572 10.97065509 -45 8 C-38.25 7.875 -38.25 7.875 -36 9 C-36 9.99 -36 10.98 -36 12 C-36.99 12 -37.98 12 -39 12 C-39.23396484 13.08474609 -39.23396484 13.08474609 -39.47265625 14.19140625 C-41.76691883 18.41026761 -45.26005869 19.78551034 -49.4375 21.9375 C-50.24703125 22.3691748 -51.0565625 22.80084961 -51.890625 23.24560547 C-53.50851962 24.107773 -55.12941494 24.96433573 -56.75341797 25.81494141 C-58.70660092 26.84523374 -60.64067915 27.90001854 -62.56640625 28.98046875 C-69.73663895 33 -69.73663895 33 -72 33 C-72 33.66 -72 34.32 -72 35 C-70.02 35 -68.04 35 -66 35 C-66 34.34 -66 33.68 -66 33 C-65.05125 32.95875 -64.1025 32.9175 -63.125 32.875 C-57.67295089 32.06368317 -53.57484883 28.90326945 -49 26 C-40.13173634 20.5823226 -31.18873827 15.46082361 -21.84082031 10.91650391 C-15.95810988 8.03982617 -10.32810547 4.80480051 -4.6953125 1.46875 C-2 0 -2 0 0 0 Z " fill="#057BDE" transform="translate(190,73)"/>
<path d="M0 0 C0.66 0 1.32 0 2 0 C1.26795733 5.35257008 -0.39439335 9.69398285 -2.5546875 14.61328125 C-3.58410932 17.02546696 -4.51205319 19.38913846 -5.3828125 21.85546875 C-8.88445235 31.42911395 -8.88445235 31.42911395 -12.16015625 33.10546875 C-14.375 33.375 -14.375 33.375 -18 33 C-18 33.66 -18 34.32 -18 35 C-19.175625 35.391875 -20.35125 35.78375 -21.5625 36.1875 C-25.11095445 37.5143134 -27.81116359 39.25112437 -30.8359375 41.55078125 C-34.80301129 44.20743175 -39.16430094 46.15088968 -43.4453125 48.24609375 C-49.51666508 51.24173914 -55.45192053 54.45580244 -61.2421875 57.96484375 C-62.31726563 58.61582031 -63.39234375 59.26679688 -64.5 59.9375 C-65.4796875 60.54464844 -66.459375 61.15179688 -67.46875 61.77734375 C-70 63 -70 63 -73 62 C-71.94097077 59.54012231 -70.87784889 57.08214009 -69.8125 54.625 C-69.37454102 53.60599609 -69.37454102 53.60599609 -68.92773438 52.56640625 C-68.30768693 51.13963041 -67.67535401 49.71814671 -67.0324707 48.30151367 C-66.31247728 46.69655316 -65.6287015 45.07506497 -64.97338867 43.44262695 C-61.94065599 36.45495393 -58.32237531 33.47848975 -51.6875 29.9375 C-50.79812744 29.43420166 -49.90875488 28.93090332 -48.99243164 28.41235352 C-46.34089022 26.91743398 -43.6722033 25.45756544 -41 24 C-39.59712496 23.21158673 -38.19592017 22.42018959 -36.796875 21.625 C-34.2376881 20.17147656 -31.67108958 18.73282123 -29.09765625 17.3046875 C-26.04018838 15.59879117 -23.01416173 13.84497093 -19.99609375 12.0703125 C-19.14474854 11.57088135 -18.29340332 11.0714502 -17.41625977 10.55688477 C-15.76427803 9.58543888 -14.11486963 8.60959895 -12.46850586 7.62866211 C-8.39291037 5.2363419 -4.58834364 3.28268393 0 2 C0 1.34 0 0.68 0 0 Z " fill="#FAAF09" transform="translate(200,83)"/>
<path d="M0 0 C0 0.66 0 1.32 0 2 C1.98 2.66 3.96 3.32 6 4 C6 4.99 6 5.98 6 7 C5.34104736 7.35191406 4.68209473 7.70382813 4.00317383 8.06640625 C-11.86484533 16.52222769 -11.86484533 16.52222769 -27.2890625 25.74609375 C-36.62507554 31.53308573 -46.3959269 36.674258 -56 42 C-56.495 40.515 -56.495 40.515 -57 39 C-59.97 38.67 -62.94 38.34 -66 38 C-66 36.35 -66 34.7 -66 33 C-65.05125 32.95875 -64.1025 32.9175 -63.125 32.875 C-57.67295089 32.06368317 -53.57484883 28.90326945 -49 26 C-40.13173634 20.5823226 -31.18873827 15.46082361 -21.84082031 10.91650391 C-15.95810988 8.03982617 -10.32810547 4.80480051 -4.6953125 1.46875 C-2 0 -2 0 0 0 Z " fill="#F3AF15" transform="translate(190,73)"/>
<path d="M0 0 C3.81937615 3.05550092 5.56955447 5.7401229 6.125 10.625 C6.37631542 14.26105287 6.21126785 15.69652233 4.6875 19.125 C1.78693039 22.17059809 -0.79569925 24.39981487 -4.8125 25.75 C-9.78604343 25.66274485 -13.6207261 24.41749248 -17.8125 21.75 C-20.76569296 18.30460822 -21.28468802 15.26534056 -21.10546875 10.7421875 C-20.46338426 6.37601296 -18.33510283 2.42717815 -14.8125 -0.25 C-10.10257599 -2.16885793 -4.57824741 -2.03477663 0 0 Z " fill="#F9B00C" transform="translate(208.8125,52.25)"/>
<path d="M0 0 C5.73138909 0.44087608 10.77059797 2.77802088 16 5 C16 5.33 16 5.66 16 6 C10.33078717 6.32687353 6.11007137 4.18029712 1 2 C1.07359238 2.857715 1.14718475 3.71542999 1.2230072 4.59913635 C2.04285775 15.22527689 2.04747187 25.75124419 1.87890625 36.40234375 C1.85453503 38.21935851 1.83069532 40.03638048 1.80735779 41.85340881 C1.74521195 46.58304187 1.67595737 51.3125437 1.60510254 56.04205322 C1.53378187 60.889304 1.46934945 65.73664614 1.40429688 70.58398438 C1.27618368 80.05609003 1.14054275 89.52807117 1 99 C2.7015625 99.185625 2.7015625 99.185625 4.4375 99.375 C5.613125 99.58125 6.78875 99.7875 8 100 C8.33 100.66 8.66 101.32 9 102 C8.505 102.99 8.505 102.99 8 104 C10.475 103.505 10.475 103.505 13 103 C13.350625 103.763125 13.70125 104.52625 14.0625 105.3125 C16.65502364 108.90858118 18.87447406 109.52103787 23 111 C23 111.66 23 112.32 23 113 C23.7734375 113.185625 23.7734375 113.185625 24.5625 113.375 C26.59993083 113.89741816 28.61617404 114.50157125 30.625 115.125 C33.84100227 116.35340251 33.84100227 116.35340251 36 115 C36.99 115.99 36.99 115.99 38 117 C37.34 117 36.68 117 36 117 C36.33 118.98 36.66 120.96 37 123 C32.19866906 121.36211908 28.26002937 118.71610615 24.0625 115.9375 C22.55229093 114.94759989 21.04187074 113.95802178 19.53125 112.96875 C18.77585937 112.47246094 18.02046875 111.97617188 17.2421875 111.46484375 C15.1179963 110.07708818 12.98421501 108.70623831 10.84375 107.34375 C10.20429443 106.93648682 9.56483887 106.52922363 8.90600586 106.10961914 C7.70211377 105.34417272 6.4972397 104.58026796 5.29125977 103.81811523 C2.97272196 102.33870696 0.95213674 100.95213674 -1 99 C-1.19374626 95.90129151 -1.26211064 92.89223157 -1.24291992 89.79272461 C-1.24481827 88.83818893 -1.24671661 87.88365326 -1.24867249 86.90019226 C-1.25238767 83.73416013 -1.24166622 80.56835562 -1.23046875 77.40234375 C-1.22927735 75.21041389 -1.2288237 73.01848351 -1.2290802 70.82655334 C-1.2275141 66.22898165 -1.21921416 61.63148769 -1.20581055 57.03393555 C-1.18881055 51.12638475 -1.18499641 45.2189194 -1.18575573 39.31134701 C-1.18548445 34.78450192 -1.18001021 30.2576757 -1.17275429 25.73083687 C-1.16956146 23.55182602 -1.16759879 21.37281303 -1.16686058 19.19379997 C-1.16470406 16.15512284 -1.1559751 13.11653827 -1.14526367 10.07788086 C-1.14571686 9.16824585 -1.14617004 8.25861084 -1.14663696 7.32141113 C-1.11447391 1.11447391 -1.11447391 1.11447391 0 0 Z " fill="#003178" transform="translate(33,109)"/>
<path d="M0 0 C-0.33 0.99 -0.66 1.98 -1 3 C-2.65 3.33 -4.3 3.66 -6 4 C-5.505 6.97 -5.505 6.97 -5 10 C-8 10 -11 10 -14 10 C-18.27165044 11.62852954 -18.27165044 11.62852954 -21 15 C-21.33 15.33 -21.66 15.66 -22 16 C-22 16.99 -22 17.98 -22 19 C-22.66 19 -23.32 19 -24 19 C-24.33 18.34 -24.66 17.68 -25 17 C-25.53109375 17.28875 -26.0621875 17.5775 -26.609375 17.875 C-27.31578125 18.24625 -28.0221875 18.6175 -28.75 19 C-29.44609375 19.37125 -30.1421875 19.7425 -30.859375 20.125 C-33 21 -33 21 -37 21 C-37.66 23.31 -38.32 25.62 -39 28 C-37.35 27.67 -35.7 27.34 -34 27 C-34 27.66 -34 28.32 -34 29 C-33.01 29 -32.02 29 -31 29 C-30.67 28.34 -30.34 27.68 -30 27 C-27.36 27.99 -24.72 28.98 -22 30 C-22.33 30.66 -22.66 31.32 -23 32 C-22.43410156 32.26554687 -21.86820313 32.53109375 -21.28515625 32.8046875 C-20.55167969 33.15789062 -19.81820312 33.51109375 -19.0625 33.875 C-18.33160156 34.22304687 -17.60070312 34.57109375 -16.84765625 34.9296875 C-15 36 -15 36 -14 38 C-21.4632057 35.84297423 -28.79753322 33.39016484 -36.125 30.8125 C-37.7028125 30.26045898 -37.7028125 30.26045898 -39.3125 29.69726562 C-41.87569766 28.80014644 -44.4381741 27.90102729 -47 27 C-47 25.68 -47 24.36 -47 23 C-45.81470703 22.41605469 -45.81470703 22.41605469 -44.60546875 21.8203125 C-37.47791865 18.28504765 -30.40811538 14.65728641 -23.375 10.9375 C-2.6656746 0 -2.6656746 0 0 0 Z " fill="#08449B" transform="translate(85,77)"/>
<path d="M0 0 C-0.33 1.32 -0.66 2.64 -1 4 C-2.32 4 -3.64 4 -5 4 C-4.67 4.99 -4.34 5.98 -4 7 C-7.06679465 10.42409111 -10.11716523 12.27342685 -14.25 14.25 C-15.32765625 14.77078125 -16.4053125 15.2915625 -17.515625 15.828125 C-18.33546875 16.21484375 -19.1553125 16.6015625 -20 17 C-20 16.01 -20 15.02 -20 14 C-22.97 13.67 -25.94 13.34 -29 13 C-29 11.35 -29 9.7 -29 8 C-28.05125 7.95875 -27.1025 7.9175 -26.125 7.875 C-21.55132216 7.25468337 -18.26571977 4.86149761 -14.42578125 2.4375 C-9.66595854 -0.38313568 -5.47294335 -1.65846768 0 0 Z " fill="#F4A410" transform="translate(153,98)"/>
<path d="M0 0 C6.75 -0.125 6.75 -0.125 9 1 C9 1.99 9 2.98 9 4 C8.01 4 7.02 4 6 4 C5.76990234 5.0828125 5.76990234 5.0828125 5.53515625 6.1875 C3.21662488 10.43519106 -0.35245823 11.8323196 -4.5625 14 C-5.72362305 14.61875 -5.72362305 14.61875 -6.90820312 15.25 C-8.4744937 16.08465942 -10.04568857 16.91017884 -11.62158203 17.7265625 C-13.24489302 18.5957054 -14.84478034 19.50969606 -16.42138672 20.4609375 C-17.19885254 20.92757812 -17.97631836 21.39421875 -18.77734375 21.875 C-19.46948975 22.30554688 -20.16163574 22.73609375 -20.87475586 23.1796875 C-23.59329372 24.22900252 -25.24090657 23.78082434 -28 23 C-27.67 21.68 -27.34 20.36 -27 19 C-26.34 19 -25.68 19 -25 19 C-24.67 18.01 -24.34 17.02 -24 16 C-22.1128125 15.87625 -22.1128125 15.87625 -20.1875 15.75 C-16.70956936 15.39197936 -16.70956936 15.39197936 -14.25 12.9375 C-13.63125 11.9784375 -13.63125 11.9784375 -13 11 C-11.68 11 -10.36 11 -9 11 C-8.67 10.01 -8.34 9.02 -8 8 C-6.68 8.66 -5.36 9.32 -4 10 C-3.67 9.01 -3.34 8.02 -3 7 C-2.34 6.67 -1.68 6.34 -1 6 C-0.34227572 2.97065509 -0.34227572 2.97065509 0 0 Z " fill="#056CE9" transform="translate(145,81)"/>
<path d="M0 0 C0.66 0.33 1.32 0.66 2 1 C1.01 2.32 0.02 3.64 -1 5 C1.57213134 6.61949011 2.67669159 7.04408751 5.75 6.625 C6.86375 6.315625 6.86375 6.315625 8 6 C8 4.68 8 3.36 8 2 C10.97 2.495 10.97 2.495 14 3 C9.22305571 7.18619212 3.801532 10.17537866 -1.6875 13.3125 C-3.13092773 14.15651367 -3.13092773 14.15651367 -4.60351562 15.01757812 C-5.98120117 15.80745117 -5.98120117 15.80745117 -7.38671875 16.61328125 C-8.22420654 17.09579346 -9.06169434 17.57830566 -9.92456055 18.07543945 C-10.60945557 18.38054443 -11.29435059 18.68564941 -12 19 C-12.66 18.67 -13.32 18.34 -14 18 C-14 17.01 -14 16.02 -14 15 C-12.68 14.34 -11.36 13.68 -10 13 C-10.33 12.34 -10.66 11.68 -11 11 C-13.64 11.33 -16.28 11.66 -19 12 C-16.41696321 9.07732516 -13.43090596 7.36527745 -10.0625 5.4375 C-9.02222656 4.83808594 -7.98195312 4.23867187 -6.91015625 3.62109375 C-5.94980469 3.08613281 -4.98945313 2.55117187 -4 2 C-3.25621094 1.57847656 -2.51242188 1.15695313 -1.74609375 0.72265625 C-0.88177734 0.36494141 -0.88177734 0.36494141 0 0 Z " fill="#EFA713" transform="translate(162,87)"/>
</svg>
