<?xml version="1.0" encoding="UTF-8"?>
<svg version="1.1" xmlns="http://www.w3.org/2000/svg" width="182" height="201">
<path d="M0 0 C0.66 0 1.32 0 2 0 C1.44650514 3.93152534 0.63853109 7.29748514 -0.9375 10.9375 C-1.60458984 12.48824219 -1.60458984 12.48824219 -2.28515625 14.0703125 C-2.67985107 14.97378418 -2.67985107 14.97378418 -3.08251953 15.89550781 C-4.16667673 18.38231863 -5.23738382 20.87477265 -6.30859375 23.3671875 C-7.16353768 25.3491848 -8.01901201 27.33095339 -8.875 29.3125 C-9.27323975 30.23603271 -9.67147949 31.15956543 -10.08178711 32.11108398 C-12.39272531 37.43007111 -14.7852774 42.70146858 -17.25390625 47.94921875 C-21.2777495 56.51018421 -25.0908104 65.16169246 -28.88891602 73.82470703 C-30.06152956 76.49778779 -31.23862185 79.16886565 -32.41601562 81.83984375 C-36.37503758 90.84532024 -40.22470438 99.8715481 -43.80029297 109.03662109 C-45.04180172 112.10325383 -46.46456696 114.99337465 -48.0078125 117.9140625 C-49.81325968 121.70976642 -51.15279303 125.69845565 -52.55859375 129.65625 C-55.85447871 137.30198855 -59.67699053 142.13005615 -66.5 146.875 C-67.92768671 147.90541451 -69.35476128 148.93667766 -70.78125 149.96875 C-71.49023438 150.47535156 -72.19921875 150.98195312 -72.9296875 151.50390625 C-76.00590932 153.72691183 -79.00298837 156.04696418 -82 158.375 C-83.56234375 159.57382812 -83.56234375 159.57382812 -85.15625 160.796875 C-86.92070087 162.16383969 -88.67326571 163.54648191 -90.40625 164.953125 C-91.0971875 165.50484375 -91.788125 166.0565625 -92.5 166.625 C-93.35078125 167.32496094 -93.35078125 167.32496094 -94.21875 168.0390625 C-96.63602084 169.34311651 -98.27416058 169.21341629 -101 169 C-103.05444336 168.02880859 -103.05444336 168.02880859 -105.08984375 166.6484375 C-105.86303955 166.13385986 -106.63623535 165.61928223 -107.43286133 165.08911133 C-108.25939209 164.52345459 -109.08592285 163.95779785 -109.9375 163.375 C-111.73092412 162.17711677 -113.52522714 160.98054859 -115.3203125 159.78515625 C-116.25133789 159.16141113 -117.18236328 158.53766602 -118.14160156 157.89501953 C-122.81877802 154.79421293 -127.56736817 151.80781804 -132.3125 148.8125 C-140.357082 143.71314837 -148.4064575 138.60668558 -156.22245121 133.15984535 C-158.04366847 131.93160805 -158.04366847 131.93160805 -160.26356411 130.81139183 C-166.49931534 127.31286219 -166.49931534 127.31286219 -167.81694221 123.85786819 C-168.10872257 121.24542952 -168.11478888 118.76639947 -168.02172852 116.13916016 C-168.02304276 115.16292694 -168.02435699 114.18669373 -168.02571106 113.18087769 C-168.01945748 109.96508509 -167.94954907 106.754031 -167.87890625 103.5390625 C-167.86211387 101.30563929 -167.84930568 99.07218285 -167.84031677 96.8387146 C-167.80600259 90.9688108 -167.71763831 85.10092113 -167.61798096 79.23181152 C-167.52580488 73.23945361 -167.48478563 67.24676922 -167.43945312 61.25390625 C-167.34301778 49.50172068 -167.18947419 37.75102801 -167 26 C-162.4762762 26.69646937 -158.61271219 27.78063597 -154.35546875 29.484375 C-153.72031342 29.73650757 -153.08515808 29.98864014 -152.43075562 30.24841309 C-150.3474378 31.07679334 -148.26751771 31.91337204 -146.1875 32.75 C-144.73388684 33.32971441 -143.28002532 33.90880642 -141.82592773 34.48730469 C-138.78178458 35.69885559 -135.73874681 36.91312974 -132.69628906 38.12890625 C-127.98846143 40.00761796 -123.2727268 41.86585535 -118.5546875 43.71875 C-117.41574791 44.16616547 -117.41574791 44.16616547 -116.25379944 44.62261963 C-113.29338554 45.78532971 -110.33281471 46.9476397 -107.37216187 48.10974121 C-105.33238893 48.91080465 -103.29309195 49.71306808 -101.25390625 50.515625 C-100.09189697 50.97227539 -98.9298877 51.42892578 -97.73266602 51.89941406 C-95 53 -95 53 -93 54 C-91.55246813 62.25093166 -91.90780998 70.65168141 -92 79 C-96.02925799 80.62928361 -98.66914237 79.26603934 -102.57421875 77.71875 C-103.21155945 77.46957825 -103.84890015 77.22040649 -104.5055542 76.96368408 C-106.57059919 76.15313088 -108.62895928 75.32691602 -110.6875 74.5 C-112.09544982 73.94348844 -113.50373516 73.38782502 -114.91235352 72.83300781 C-124.64776835 68.98734648 -134.35594969 65.06970325 -144 61 C-143.9278125 61.58007812 -143.855625 62.16015625 -143.78125 62.7578125 C-143.2533613 67.20087574 -142.88503374 71.51631578 -143 76 C-140.43954067 77.44123535 -137.87716757 78.87877866 -135.3125 80.3125 C-134.52045166 80.75529297 -133.72840332 81.19808594 -132.91235352 81.65429688 C-125.57024954 85.7328474 -118.13166943 89.61537998 -110.64379883 93.41918945 C-109.79068115 93.85835693 -108.93756348 94.29752441 -108.05859375 94.75 C-107.29861084 95.13671875 -106.53862793 95.5234375 -105.75561523 95.921875 C-104 97 -104 97 -103 99 C-102.91657841 100.44848582 -102.89267139 101.90070869 -102.90234375 103.3515625 C-102.90717773 104.62773437 -102.90717773 104.62773437 -102.91210938 105.9296875 C-102.92467773 107.26386719 -102.92467773 107.26386719 -102.9375 108.625 C-102.94201172 109.5221875 -102.94652344 110.419375 -102.95117188 111.34375 C-102.96297409 113.56256648 -102.97943845 115.78125018 -103 118 C-107.5889335 118 -110.47396795 116.56413989 -114.46875 114.5703125 C-115.186073 114.21991913 -115.903396 113.86952576 -116.64245605 113.5085144 C-118.93198454 112.38800285 -121.21597156 111.25667381 -123.5 110.125 C-125.0374092 109.37037779 -126.57516606 108.61646343 -128.11328125 107.86328125 C-133.41868617 105.26201683 -138.71834809 102.64923623 -144 100 C-143.67 100.99 -143.34 101.98 -143 103 C-143.04573175 105.25748555 -143.19162988 107.49426185 -143.35546875 109.74609375 C-142.85245747 112.93551689 -141.40423833 113.87582349 -139 116 C-137.04441486 117.22790964 -135.04563178 118.38839704 -133.01953125 119.49609375 C-132.44724289 119.81151627 -131.87495453 120.12693878 -131.2853241 120.45191956 C-129.46451986 121.45359946 -127.63870921 122.44571491 -125.8125 123.4375 C-124.60577049 124.09897255 -123.39938703 124.76107679 -122.19335938 125.42382812 C-119.86718282 126.70109665 -117.53898043 127.97439291 -115.20947266 129.24560547 C-111.12816802 131.47656965 -107.06136761 133.73298806 -103 136 C-96.02380961 119.73319867 -89.2588843 103.38368259 -82.5625 87 C-82.16855042 86.0363855 -81.77460083 85.072771 -81.36871338 84.07995605 C-80.22555455 81.2827653 -79.08322466 78.48523816 -77.94140625 75.6875 C-77.60318344 74.85905579 -77.26496063 74.03061157 -76.91648865 73.17706299 C-72.41971375 62.17698939 -72.41971375 62.17698939 -68.17578125 51.078125 C-67.55556109 49.46841313 -66.93446962 47.85903671 -66.3125 46.25 C-66.02439453 45.43917969 -65.73628906 44.62835938 -65.43945312 43.79296875 C-62.80403607 37.13678193 -59.16323587 34.40897608 -53 31 C-52.24904053 30.5570459 -51.49808105 30.1140918 -50.72436523 29.65771484 C-48.35234068 28.26407749 -45.96090796 26.91018355 -43.5625 25.5625 C-41.72870163 24.52556156 -39.89539254 23.4877575 -38.0625 22.44921875 C-37.09183594 21.89927246 -36.12117187 21.34932617 -35.12109375 20.78271484 C-31.75639744 18.86085842 -28.40779945 16.91234965 -25.0625 14.95703125 C-23.88734372 14.27195915 -22.71213234 13.58698157 -21.53686523 12.90209961 C-19.25713708 11.57354188 -16.98140077 10.23883254 -14.70727539 8.90063477 C-13.66047607 8.29147217 -12.61367676 7.68230957 -11.53515625 7.0546875 C-10.610979 6.51312012 -9.68680176 5.97155273 -8.73461914 5.41357422 C-5.88421256 3.94014738 -3.06521432 2.93442372 0 2 C0 1.34 0 0.68 0 0 Z " fill="#024CA3" transform="translate(167,32)"/>
<path d="M0 0 C1.59583584 0.60495738 3.18706251 1.22221373 4.7734375 1.8515625 C5.5675 2.15578125 6.3615625 2.46 7.1796875 2.7734375 C8.75487313 3.37768904 10.32816509 3.98690289 11.89941406 4.60131836 C14.00468663 5.4206195 16.11692603 6.2167092 18.234375 7.00390625 C22.23061669 8.49639442 26.19138473 10.07101442 30.1484375 11.6640625 C30.82777344 11.93669922 31.50710937 12.20933594 32.20703125 12.49023438 C33.8544902 13.15153832 35.5015116 13.81393216 37.1484375 14.4765625 C35.6735979 18.37465279 33.7650311 19.56629394 30.125 21.46484375 C29.10873535 22.00343018 28.0924707 22.5420166 27.04541016 23.09692383 C25.96565918 23.65532959 24.8859082 24.21373535 23.7734375 24.7890625 C21.58512759 25.94377894 19.39761814 27.10001369 17.2109375 28.2578125 C16.16164063 28.81082031 15.11234375 29.36382812 14.03125 29.93359375 C9.64135159 32.28320062 5.37721913 34.81212767 1.125 37.40234375 C-0.8515625 38.4765625 -0.8515625 38.4765625 -2.8515625 38.4765625 C-2.8515625 39.1365625 -2.8515625 39.7965625 -2.8515625 40.4765625 C-0.8715625 40.4765625 1.1084375 40.4765625 3.1484375 40.4765625 C3.1484375 39.8165625 3.1484375 39.1565625 3.1484375 38.4765625 C4.0971875 38.4353125 5.0459375 38.3940625 6.0234375 38.3515625 C11.47548661 37.54024567 15.57358867 34.37983195 20.1484375 31.4765625 C29.01670116 26.0588851 37.95969923 20.93738611 47.30761719 16.39306641 C53.19032762 13.51638867 58.82033203 10.28136301 64.453125 6.9453125 C67.1484375 5.4765625 67.1484375 5.4765625 69.1484375 5.4765625 C69.1484375 6.1365625 69.1484375 6.7965625 69.1484375 7.4765625 C71.1284375 8.1365625 73.1084375 8.7965625 75.1484375 9.4765625 C75.1484375 10.4665625 75.1484375 11.4565625 75.1484375 12.4765625 C74.48948486 12.82847656 73.83053223 13.18039063 73.15161133 13.54296875 C70.08581008 15.18334507 67.02338289 16.82993014 63.9609375 18.4765625 C62.40729492 19.30607422 62.40729492 19.30607422 60.82226562 20.15234375 C55.35944606 23.09516296 50.00546055 26.14040547 44.73828125 29.421875 C38.52405297 33.29173547 32.16951301 36.85271003 25.74163818 40.34857178 C7.12368149 50.37024241 7.12368149 50.37024241 -10.8515625 61.4765625 C-16.09911025 60.72691282 -20.53797501 59.2587056 -25.390625 57.15625 C-31.60201744 54.53315566 -37.90157681 52.31498036 -44.2890625 50.1640625 C-53.72186162 46.94941904 -63.06904508 43.57360689 -72.35327148 39.9519043 C-73.15450439 39.640354 -73.9557373 39.32880371 -74.78125 39.0078125 C-75.82128174 38.59885742 -75.82128174 38.59885742 -76.88232422 38.18164062 C-78.85308468 37.47601749 -80.81342588 36.94861204 -82.8515625 36.4765625 C-82.8515625 35.1565625 -82.8515625 33.8365625 -82.8515625 32.4765625 C-81.66626953 31.89261719 -81.66626953 31.89261719 -80.45703125 31.296875 C-73.66264123 27.92685755 -66.92380546 24.47321416 -60.2265625 20.9140625 C-50.72378934 15.86872957 -41.10097792 11.06954072 -31.45849609 6.29858398 C-30.31461426 5.73083252 -29.17073242 5.16308105 -27.9921875 4.578125 C-26.90873047 4.04477539 -25.82527344 3.51142578 -24.70898438 2.96191406 C-22.3858477 1.75429585 -20.30506647 0.4683699 -18.1484375 -1 C-12.04265929 -3.82139041 -6.15992251 -2.0967284 0 0 Z " fill="#0158CD" transform="translate(87.8515625,16.5234375)"/>
<path d="M0 0 C-0.65888037 5.08948199 -2.85402662 9.40605164 -4.98828125 14.01171875 C-5.81141114 15.81397013 -6.63381753 17.61655211 -7.45556641 19.41943359 C-7.87823792 20.3438324 -8.30090942 21.2682312 -8.73638916 22.22064209 C-10.72616604 26.59722856 -12.66819837 30.99450283 -14.60546875 35.39453125 C-14.98317413 36.25231171 -15.36087952 37.11009216 -15.75003052 37.99386597 C-16.51373946 39.729679 -17.27699502 41.46569159 -18.03979492 43.2019043 C-19.19534046 45.83033409 -20.35449669 48.45715366 -21.51367188 51.08398438 C-25.4396776 60.00434991 -29.25326057 68.94557947 -32.79589844 78.02563477 C-34.0363501 81.08979182 -35.45093584 83.97799999 -37.00390625 86.890625 C-38.88343427 90.87080199 -40.22790462 95.08261414 -41.65625 99.2421875 C-43.1502828 102.30842923 -43.90389601 102.83281794 -47 104 C-47.66 104.66 -48.32 105.32 -49 106 C-49.99 106 -50.98 106 -52 106 C-52.433125 107.4540625 -52.433125 107.4540625 -52.875 108.9375 C-54 112 -54 112 -56 113 C-56 113.33 -56 113.66 -56 114 C-56.62648438 114.09796875 -57.25296875 114.1959375 -57.8984375 114.296875 C-58.71570313 114.44640625 -59.53296875 114.5959375 -60.375 114.75 C-61.59316406 114.95882812 -61.59316406 114.95882812 -62.8359375 115.171875 C-65.15143784 115.80735516 -65.15143784 115.80735516 -66.19921875 117.9375 C-66.46347656 118.618125 -66.72773437 119.29875 -67 120 C-68.4375 122.25 -68.4375 122.25 -70 124 C-70.99 124 -71.98 124 -73 124 C-73.33 124.99 -73.66 125.98 -74 127 C-76.0625 127.6875 -76.0625 127.6875 -78 128 C-78 128.66 -78 129.32 -78 130 C-78.99 130.33 -79.98 130.66 -81 131 C-80.66666667 129.66666667 -80.33333333 128.33333333 -80 127 C-79.896875 126.38125 -79.79375 125.7625 -79.6875 125.125 C-78.46429081 121.3441716 -76.20755311 118.07817242 -73.25 115.4375 C-71.7334274 114.01093631 -71.7334274 114.01093631 -72 111.5625 C-72 109 -72 109 -70.5859375 107.140625 C-68.83487247 104.7771185 -68.29862419 103.03509318 -67.625 100.1875 C-66.410384 95.43771216 -65.02994191 90.78052524 -63.5 86.125 C-62.89671875 84.27261719 -62.89671875 84.27261719 -62.28125 82.3828125 C-61.10945583 79.28899009 -59.73031826 76.8010374 -58 74 C-57.15491362 72.05550657 -56.34329545 70.09618851 -55.5625 68.125 C-54.19646055 64.77718393 -52.856781 61.54215811 -51 58.4375 C-47.83657168 53.00035757 -45.40636449 47.23164605 -42.8984375 41.46875 C-42.56070313 40.6953125 -42.22296875 39.921875 -41.875 39.125 C-41.58367187 38.44695312 -41.29234375 37.76890625 -40.9921875 37.0703125 C-40 35 -40 35 -38.4921875 32.66796875 C-36.75749511 29.56641141 -36.11509238 26.62889819 -35.25 23.1875 C-33.37478714 17.67725914 -31.5449546 15.10567272 -26.58300781 12.3605957 C-24.02225908 11.11147262 -21.43095544 9.95972587 -18.80517578 8.85449219 C-16.68574663 7.90962913 -16.68574663 7.90962913 -13.77734375 5.7890625 C-11 4 -11 4 -7 4 C-7 3.34 -7 2.68 -7 2 C-2.25 0 -2.25 0 0 0 Z " fill="#0269DE" transform="translate(156,63)"/>
<path d="M0 0 C0 0.66 0 1.32 0 2 C1.98 2.66 3.96 3.32 6 4 C6 4.99 6 5.98 6 7 C5.34104736 7.35191406 4.68209473 7.70382813 4.00317383 8.06640625 C0.93737258 9.70678257 -2.12505461 11.35336764 -5.1875 13 C-6.22326172 13.55300781 -7.25902344 14.10601562 -8.32617188 14.67578125 C-13.78899144 17.61860046 -19.14297695 20.66384297 -24.41015625 23.9453125 C-30.62438453 27.81517297 -36.97892449 31.37614753 -43.40679932 34.87200928 C-62.02475601 44.89367991 -62.02475601 44.89367991 -80 56 C-87.50029351 54.9285295 -94.10619023 52.05613902 -101 49 C-98.9783451 42.9350353 -91.32650277 40.07581917 -85.875 37.3125 C-82.95551108 35.88004048 -80.04620944 34.63126865 -77 33.5 C-73.80932297 32.26576327 -73.80932297 32.26576327 -72.5625 29.3125 C-72.376875 28.549375 -72.19125 27.78625 -72 27 C-71.34 27 -70.68 27 -70 27 C-69.67 26.01 -69.34 25.02 -69 24 C-67.1128125 23.87625 -67.1128125 23.87625 -65.1875 23.75 C-61.70956936 23.39197936 -61.70956936 23.39197936 -59.25 20.9375 C-58.63125 19.9784375 -58.63125 19.9784375 -58 19 C-56.68 19 -55.36 19 -54 19 C-53.505 17.515 -53.505 17.515 -53 16 C-51.68 16.66 -50.36 17.32 -49 18 C-48.505 16.515 -48.505 16.515 -48 15 C-47.34 14.67 -46.68 14.34 -46 14 C-45.31270746 11.88153715 -45.31270746 11.88153715 -44.875 9.4375 C-44.70742187 8.61121094 -44.53984375 7.78492188 -44.3671875 6.93359375 C-44.24601562 6.29550781 -44.12484375 5.65742188 -44 5 C-41.15449988 5.66010476 -38.47674001 6.51724966 -35.75 7.5625 C-35.04359375 7.83191406 -34.3371875 8.10132813 -33.609375 8.37890625 C-32.81273438 8.68634766 -32.81273438 8.68634766 -32 9 C-33.4748396 12.89809029 -35.3834064 14.08973144 -39.0234375 15.98828125 C-40.03970215 16.52686768 -41.0559668 17.0654541 -42.10302734 17.62036133 C-43.18277832 18.17876709 -44.2625293 18.73717285 -45.375 19.3125 C-47.56330991 20.46721644 -49.75081936 21.62345119 -51.9375 22.78125 C-52.98679688 23.33425781 -54.03609375 23.88726562 -55.1171875 24.45703125 C-59.50708591 26.80663812 -63.77121837 29.33556517 -68.0234375 31.92578125 C-70 33 -70 33 -72 33 C-72 33.66 -72 34.32 -72 35 C-70.02 35 -68.04 35 -66 35 C-66 34.34 -66 33.68 -66 33 C-65.05125 32.95875 -64.1025 32.9175 -63.125 32.875 C-57.67295089 32.06368317 -53.57484883 28.90326945 -49 26 C-40.13173634 20.5823226 -31.18873827 15.46082361 -21.84082031 10.91650391 C-15.95810988 8.03982617 -10.32810547 4.80480051 -4.6953125 1.46875 C-2 0 -2 0 0 0 Z " fill="#057BDE" transform="translate(157,22)"/>
<path d="M0 0 C0.66 0 1.32 0 2 0 C1.26795733 5.35257008 -0.39439335 9.69398285 -2.5546875 14.61328125 C-3.58410932 17.02546696 -4.51205319 19.38913846 -5.3828125 21.85546875 C-8.88445235 31.42911395 -8.88445235 31.42911395 -12.16015625 33.10546875 C-14.375 33.375 -14.375 33.375 -18 33 C-18 33.66 -18 34.32 -18 35 C-19.175625 35.391875 -20.35125 35.78375 -21.5625 36.1875 C-25.11095445 37.5143134 -27.81116359 39.25112437 -30.8359375 41.55078125 C-34.80301129 44.20743175 -39.16430094 46.15088968 -43.4453125 48.24609375 C-49.51666508 51.24173914 -55.45192053 54.45580244 -61.2421875 57.96484375 C-62.31726563 58.61582031 -63.39234375 59.26679687 -64.5 59.9375 C-65.4796875 60.54464844 -66.459375 61.15179688 -67.46875 61.77734375 C-70 63 -70 63 -73 62 C-71.94097077 59.54012231 -70.87784889 57.08214009 -69.8125 54.625 C-69.37454102 53.60599609 -69.37454102 53.60599609 -68.92773438 52.56640625 C-68.30768693 51.13963041 -67.67535401 49.71814671 -67.0324707 48.30151367 C-66.31247728 46.69655316 -65.6287015 45.07506497 -64.97338867 43.44262695 C-61.94065599 36.45495393 -58.32237531 33.47848975 -51.6875 29.9375 C-50.79812744 29.43420166 -49.90875488 28.93090332 -48.99243164 28.41235352 C-46.34089022 26.91743398 -43.6722033 25.45756544 -41 24 C-39.59712496 23.21158673 -38.19592017 22.42018959 -36.796875 21.625 C-34.2376881 20.17147656 -31.67108958 18.73282123 -29.09765625 17.3046875 C-26.04018838 15.59879117 -23.01416173 13.84497093 -19.99609375 12.0703125 C-19.14474854 11.57088135 -18.29340332 11.0714502 -17.41625977 10.55688477 C-15.76427803 9.58543888 -14.11486963 8.60959895 -12.46850586 7.62866211 C-8.39291037 5.2363419 -4.58834364 3.28268393 0 2 C0 1.34 0 0.68 0 0 Z " fill="#F9AF09" transform="translate(167,32)"/>
<path d="M0 0 C0 0.66 0 1.32 0 2 C1.98 2.66 3.96 3.32 6 4 C6 4.99 6 5.98 6 7 C5.34104736 7.35191406 4.68209473 7.70382813 4.00317383 8.06640625 C-11.86484533 16.52222769 -11.86484533 16.52222769 -27.2890625 25.74609375 C-36.62507554 31.53308573 -46.3959269 36.674258 -56 42 C-56.495 40.515 -56.495 40.515 -57 39 C-59.97 38.67 -62.94 38.34 -66 38 C-66 36.35 -66 34.7 -66 33 C-65.05125 32.95875 -64.1025 32.9175 -63.125 32.875 C-57.67295089 32.06368317 -53.57484883 28.90326945 -49 26 C-40.13173634 20.5823226 -31.18873827 15.46082361 -21.84082031 10.91650391 C-15.95810988 8.03982617 -10.32810547 4.80480051 -4.6953125 1.46875 C-2 0 -2 0 0 0 Z " fill="#F2AF18" transform="translate(157,22)"/>
<path d="M0 0 C3.81937615 3.05550092 5.56955447 5.7401229 6.125 10.625 C6.37631542 14.26105287 6.21126785 15.69652233 4.6875 19.125 C1.78693039 22.17059809 -0.79569925 24.39981487 -4.8125 25.75 C-9.78604343 25.66274485 -13.6207261 24.41749248 -17.8125 21.75 C-20.76569296 18.30460822 -21.28468802 15.26534056 -21.10546875 10.7421875 C-20.46338426 6.37601296 -18.33510283 2.42717815 -14.8125 -0.25 C-10.10257599 -2.16885793 -4.57824741 -2.03477663 0 0 Z " fill="#F9B00C" transform="translate(175.8125,1.25)"/>
<path d="M0 0 C0 0.99 0 1.98 0 3 C-0.825 3.2475 -1.65 3.495 -2.5 3.75 C-5.94740756 4.98121699 -9.04082704 6.48291978 -12.265625 8.1953125 C-14 9 -14 9 -16 9 C-15.505 11.97 -15.505 11.97 -15 15 C-18 15 -21 15 -24 15 C-28.27165044 16.62852954 -28.27165044 16.62852954 -31 20 C-31.33 20.33 -31.66 20.66 -32 21 C-32 21.99 -32 22.98 -32 24 C-32.66 24 -33.32 24 -34 24 C-34.33 23.34 -34.66 22.68 -35 22 C-35.53109375 22.28875 -36.0621875 22.5775 -36.609375 22.875 C-37.31578125 23.24625 -38.0221875 23.6175 -38.75 24 C-39.44609375 24.37125 -40.1421875 24.7425 -40.859375 25.125 C-43 26 -43 26 -47 26 C-47.66 28.31 -48.32 30.62 -49 33 C-46.525 32.505 -46.525 32.505 -44 32 C-44 32.66 -44 33.32 -44 34 C-43.01 34 -42.02 34 -41 34 C-40.67 33.34 -40.34 32.68 -40 32 C-37.36 32.99 -34.72 33.98 -32 35 C-32.33 35.66 -32.66 36.32 -33 37 C-32.43410156 37.26554687 -31.86820313 37.53109375 -31.28515625 37.8046875 C-30.55167969 38.15789063 -29.81820312 38.51109375 -29.0625 38.875 C-28.33160156 39.22304688 -27.60070312 39.57109375 -26.84765625 39.9296875 C-25 41 -25 41 -24 43 C-31.4632057 40.84297423 -38.79753322 38.39016484 -46.125 35.8125 C-47.7028125 35.26045898 -47.7028125 35.26045898 -49.3125 34.69726562 C-51.87569766 33.80014644 -54.4381741 32.90102729 -57 32 C-57 30.68 -57 29.36 -57 28 C-55.81470703 27.41605469 -55.81470703 27.41605469 -54.60546875 26.8203125 C-47.68614377 23.38832731 -40.82349806 19.86882463 -34 16.25 C-26.68499853 12.37983633 -19.32985301 8.59535032 -11.9375 4.875 C-10.97908203 4.3893457 -10.02066406 3.90369141 -9.03320312 3.40332031 C-8.14439453 2.95827148 -7.25558594 2.51322266 -6.33984375 2.0546875 C-5.54956787 1.65749512 -4.75929199 1.26030273 -3.94506836 0.85107422 C-2 0 -2 0 0 0 Z " fill="#0646A9" transform="translate(62,21)"/>
<path d="M0 0 C4.067476 0.63200806 7.57337576 1.46992768 11.375 3.0625 C12.24898437 3.42472656 13.12296875 3.78695312 14.0234375 4.16015625 C15.00183594 4.57587891 15.00183594 4.57587891 16 5 C16 5.33 16 5.66 16 6 C10.33078717 6.32687353 6.11007137 4.18029712 1 2 C1.07359238 2.857715 1.14718475 3.71542999 1.2230072 4.59913635 C2.04285775 15.22527689 2.04747187 25.75124419 1.87890625 36.40234375 C1.85453503 38.21935851 1.83069532 40.03638048 1.80735779 41.85340881 C1.74521195 46.58304187 1.67595737 51.3125437 1.60510254 56.04205322 C1.53378187 60.889304 1.46934945 65.73664614 1.40429688 70.58398438 C1.27618368 80.05609003 1.14054275 89.52807117 1 99 C2.7015625 99.185625 2.7015625 99.185625 4.4375 99.375 C5.613125 99.58125 6.78875 99.7875 8 100 C8.33 100.66 8.66 101.32 9 102 C8.505 102.99 8.505 102.99 8 104 C10.475 103.505 10.475 103.505 13 103 C13.804375 104.1446875 13.804375 104.1446875 14.625 105.3125 C17.20205814 108.22864474 19.45814404 109.4705622 23 111 C23 111.66 23 112.32 23 113 C23.7734375 113.185625 23.7734375 113.185625 24.5625 113.375 C26.59993083 113.89741816 28.61617404 114.50157125 30.625 115.125 C33.84100227 116.35340251 33.84100227 116.35340251 36 115 C36.99 115.99 36.99 115.99 38 117 C37.34 117 36.68 117 36 117 C36.33 118.98 36.66 120.96 37 123 C32.19862237 121.36210315 28.26013107 118.71601325 24.0625 115.9375 C22.55356526 114.94894419 21.04444759 113.96066754 19.53515625 112.97265625 C18.40231201 112.22846436 18.40231201 112.22846436 17.24658203 111.46923828 C13.25287277 108.8573993 9.22774598 106.29447288 5.20336914 103.73022461 C1.10866095 101.10866095 1.10866095 101.10866095 0 100 C-0.09533653 96.8949275 -0.12551126 93.81213542 -0.11352539 90.70678711 C-0.11367142 89.73128403 -0.11381744 88.75578094 -0.1139679 87.75071716 C-0.11326833 84.50957047 -0.10547391 81.26848046 -0.09765625 78.02734375 C-0.09579222 75.78674857 -0.09436825 73.54615298 -0.09336853 71.30555725 C-0.08954213 65.3954049 -0.0797108 59.48527695 -0.06866455 53.57513428 C-0.05845306 47.54944183 -0.05387147 41.52374547 -0.04882812 35.49804688 C-0.03808864 23.66535384 -0.02101076 11.83267894 0 0 Z " fill="#083985" transform="translate(0,58)"/>
<path d="M0 0 C-0.33 1.32 -0.66 2.64 -1 4 C-2.32 4 -3.64 4 -5 4 C-4.67 4.99 -4.34 5.98 -4 7 C-7.06679465 10.42409111 -10.11716523 12.27342685 -14.25 14.25 C-15.32765625 14.77078125 -16.4053125 15.2915625 -17.515625 15.828125 C-18.33546875 16.21484375 -19.1553125 16.6015625 -20 17 C-20 16.01 -20 15.02 -20 14 C-22.97 13.67 -25.94 13.34 -29 13 C-29 11.35 -29 9.7 -29 8 C-28.05125 7.95875 -27.1025 7.9175 -26.125 7.875 C-21.55132216 7.25468337 -18.26571977 4.86149761 -14.42578125 2.4375 C-9.66595854 -0.38313568 -5.47294335 -1.65846768 0 0 Z " fill="#F4A410" transform="translate(120,47)"/>
<path d="M0 0 C2.84550012 0.66010476 5.52325999 1.51724966 8.25 2.5625 C8.95640625 2.83191406 9.6628125 3.10132813 10.390625 3.37890625 C10.92171875 3.58386719 11.4528125 3.78882813 12 4 C10.52194102 7.92702059 8.56862511 9.11431359 4.90625 11.0234375 C3.875 11.57 2.84375 12.1165625 1.78125 12.6796875 C0.6984375 13.23914062 -0.384375 13.79859375 -1.5 14.375 C-3.61576075 15.48473726 -5.73035682 16.59669803 -7.84375 17.7109375 C-9.38869141 18.52256348 -9.38869141 18.52256348 -10.96484375 19.35058594 C-14.74858355 21.40680747 -18.40972766 23.63181648 -22.05664062 25.92041016 C-24 27 -24 27 -26 27 C-25.67 25.68 -25.34 24.36 -25 23 C-23.68 22.67 -22.36 22.34 -21 22 C-21 21.34 -21 20.68 -21 20 C-19.33720673 18.9935725 -17.67016516 17.99414593 -16 17 C-15.34 16.01 -14.68 15.02 -14 14 C-12.68 14 -11.36 14 -10 14 C-9.67 13.01 -9.34 12.02 -9 11 C-7.68 11.66 -6.36 12.32 -5 13 C-4.67 12.01 -4.34 11.02 -4 10 C-3.34 9.67 -2.68 9.34 -2 9 C-1.31270746 6.88153715 -1.31270746 6.88153715 -0.875 4.4375 C-0.70742187 3.61121094 -0.53984375 2.78492188 -0.3671875 1.93359375 C-0.24601562 1.29550781 -0.12484375 0.65742188 0 0 Z " fill="#0573ED" transform="translate(113,27)"/>
<path d="M0 0 C0.66 0.33 1.32 0.66 2 1 C1.01 2.32 0.02 3.64 -1 5 C1.57213134 6.61949011 2.67669159 7.04408751 5.75 6.625 C6.86375 6.315625 6.86375 6.315625 8 6 C8 4.68 8 3.36 8 2 C10.97 2.495 10.97 2.495 14 3 C9.22305571 7.18619212 3.801532 10.17537866 -1.6875 13.3125 C-3.13092773 14.15651367 -3.13092773 14.15651367 -4.60351562 15.01757812 C-5.98120117 15.80745117 -5.98120117 15.80745117 -7.38671875 16.61328125 C-8.22420654 17.09579346 -9.06169434 17.57830566 -9.92456055 18.07543945 C-10.60945557 18.38054443 -11.29435059 18.68564941 -12 19 C-12.66 18.67 -13.32 18.34 -14 18 C-14 17.01 -14 16.02 -14 15 C-12.68 14.34 -11.36 13.68 -10 13 C-10.33 12.34 -10.66 11.68 -11 11 C-13.64 11.33 -16.28 11.66 -19 12 C-16.41696321 9.07732516 -13.43090596 7.36527745 -10.0625 5.4375 C-9.02222656 4.83808594 -7.98195313 4.23867188 -6.91015625 3.62109375 C-5.94980469 3.08613281 -4.98945312 2.55117188 -4 2 C-3.25621094 1.57847656 -2.51242188 1.15695313 -1.74609375 0.72265625 C-0.88177734 0.36494141 -0.88177734 0.36494141 0 0 Z " fill="#EFA713" transform="translate(129,36)"/>
<path d="M0 0 C0.33 0.66 0.66 1.32 1 2 C-2 4 -2 4 -5 4 C-5.33 6.64 -5.66 9.28 -6 12 C-4.35 11.67 -2.7 11.34 -1 11 C-1 11.66 -1 12.32 -1 13 C-0.01 13 0.98 13 2 13 C2.33 12.34 2.66 11.68 3 11 C5.64 11.99 8.28 12.98 11 14 C10.67 14.66 10.34 15.32 10 16 C10.56589844 16.26554687 11.13179687 16.53109375 11.71484375 16.8046875 C12.44832031 17.15789063 13.18179688 17.51109375 13.9375 17.875 C14.66839844 18.22304688 15.39929688 18.57109375 16.15234375 18.9296875 C18 20 18 20 19 22 C11.5367943 19.84297423 4.20246678 17.39016484 -3.125 14.8125 C-4.176875 14.44447266 -5.22875 14.07644531 -6.3125 13.69726562 C-8.87569766 12.80014644 -11.4381741 11.90102729 -14 11 C-14 9.68 -14 8.36 -14 7 C-9.38 4.69 -4.76 2.38 0 0 Z " fill="#084498" transform="translate(19,42)"/>
<path d="M0 0 C0.66 0 1.32 0 2 0 C1.41961734 4.37569401 0.32057626 8.01944628 -1.4375 12.0625 C-1.86933594 13.06410156 -2.30117187 14.06570312 -2.74609375 15.09765625 C-3.15988281 16.05542969 -3.57367188 17.01320313 -4 18 C-4.67251869 19.66431392 -5.34126471 21.33018263 -6 23 C-6.33 23 -6.66 23 -7 23 C-7.05607422 22.07767578 -7.05607422 22.07767578 -7.11328125 21.13671875 C-7.17902344 20.32847656 -7.24476563 19.52023438 -7.3125 18.6875 C-7.39951172 17.48673828 -7.39951172 17.48673828 -7.48828125 16.26171875 C-8.36754121 12.37552397 -10.7758966 11.14940227 -14 9 C-9.46330032 5.98320986 -5.31027254 3.46032495 0 2 C0 1.34 0 0.68 0 0 Z " fill="#F6B80F" transform="translate(167,32)"/>
<path d="M0 0 C-0.65419099 5.06998019 -2.8546409 9.41990777 -5 14 C-5.97591583 10.61682513 -5.85856655 8.4342662 -5 5 C-6.32 5 -7.64 5 -9 5 C-9 5.66 -9 6.32 -9 7 C-9.99 7 -10.98 7 -12 7 C-12.33 8.65 -12.66 10.3 -13 12 C-14.010625 12.268125 -15.02125 12.53625 -16.0625 12.8125 C-18.76183766 13.57049583 -21.03131446 14.46231338 -23.625 15.625 C-26.78430546 16.91212445 -28.65453295 17.30413337 -32 17 C-29.46909241 14.06901767 -26.66128618 12.70981747 -23.1875 11.0625 C-19.79380997 9.42092014 -16.55798817 7.83398375 -13.5 5.625 C-11 4 -11 4 -7 4 C-7 3.34 -7 2.68 -7 2 C-2.25 0 -2.25 0 0 0 Z " fill="#2485C9" transform="translate(156,63)"/>
<path d="M0 0 C1.21065165 3.63195496 0.62784815 5.06531629 -0.4375 8.6875 C-0.72496094 9.68136719 -1.01242188 10.67523438 -1.30859375 11.69921875 C-1.53675781 12.45847656 -1.76492187 13.21773437 -2 14 C-2.66 14 -3.32 14 -4 14 C-4.12375 14.763125 -4.2475 15.52625 -4.375 16.3125 C-5 19 -5 19 -7 22 C-8.65 21.67 -10.3 21.34 -12 21 C-12 20.34 -12 19.68 -12 19 C-15.33012621 17.83445583 -18.62463042 16.83879313 -22.0625 16.0625 C-25.48163467 15.21099137 -28.22675703 14.26901697 -31 12 C-31.8125 9.3125 -31.8125 9.3125 -32 7 C-26.48431813 8.53311285 -21.97965148 11.18752444 -17.125 14.125 C-15.949375 14.82689453 -15.949375 14.82689453 -14.75 15.54296875 C-12.83017528 16.69018108 -10.91369439 17.8426007 -9 19 C-5.94654296 15.44221823 -4.46596636 11.56942569 -2.8125 7.25 C-2.53986328 6.55261719 -2.26722656 5.85523438 -1.98632812 5.13671875 C-1.31868975 3.42662746 -0.65858448 1.71359846 0 0 Z " fill="#0B4D8D" transform="translate(72,149)"/>
<path d="M0 0 C-0.33 1.98 -0.66 3.96 -1 6 C-1.99 6 -2.98 6 -4 6 C-4.66 6.66 -5.32 7.32 -6 8 C-6.66 8 -7.32 8 -8 8 C-8.33 9.32 -8.66 10.64 -9 12 C-10.093125 11.979375 -11.18625 11.95875 -12.3125 11.9375 C-16.34147716 12.00578775 -18.13700494 12.13700494 -21 15 C-24.125 15.125 -24.125 15.125 -27 15 C-20.78306534 9.61198996 -8.52017193 0 0 0 Z " fill="#1B66A7" transform="translate(124,80)"/>
<path d="M0 0 C1 3 1 3 1 6 C3.31 6.33 5.62 6.66 8 7 C4.87567603 9.52349243 1.61939504 11.27256146 -2 13 C-2 12.01 -2 11.02 -2 10 C-4.97 9.67 -7.94 9.34 -11 9 C-11 7.35 -11 5.7 -11 4 C-9.9275 3.896875 -8.855 3.79375 -7.75 3.6875 C-4.14179128 3.02599507 -2.63604977 2.42516579 0 0 Z " fill="#E3A72F" transform="translate(102,51)"/>
<path d="M0 0 C-0.99 2.97 -1.98 5.94 -3 9 C-5.64 9.33 -8.28 9.66 -11 10 C-11 10.66 -11 11.32 -11 12 C-15.455 13.485 -15.455 13.485 -20 15 C-20 14.34 -20 13.68 -20 13 C-19.01 13 -18.02 13 -17 13 C-17 11.02 -17 9.04 -17 7 C-14.03 7.495 -14.03 7.495 -11 8 C-10.896875 7.360625 -10.79375 6.72125 -10.6875 6.0625 C-10.460625 5.381875 -10.23375 4.70125 -10 4 C-9.01 3.67 -8.02 3.34 -7 3 C-6.34 3.33 -5.68 3.66 -5 4 C-5 3.34 -5 2.68 -5 2 C-2 0 -2 0 0 0 Z " fill="#FAB80D" transform="translate(160,55)"/>
<path d="M0 0 C1.67542976 0.28604898 3.34385343 0.61781233 5 1 C5.33 1.99 5.66 2.98 6 4 C4.02 3.34 2.04 2.68 0 2 C0.33 2.99 0.66 3.98 1 5 C0.95426825 7.25748555 0.80837012 9.49426185 0.64453125 11.74609375 C1.15161029 14.96130922 2.50521718 15.96183301 5 18 C6.8804355 19.14506966 8.79971715 20.22842327 10.75 21.25 C11.73484375 21.77078125 12.7196875 22.2915625 13.734375 22.828125 C14.48203125 23.21484375 15.2296875 23.6015625 16 24 C15.67 24.66 15.34 25.32 15 26 C12.31158486 26.87191842 10.56367656 27.1449454 7.8125 26.4375 C6 25 6 25 5.0625 22 C4.711875 21.01 4.36125 20.02 4 19 C2.34183216 18.31246699 0.67540664 17.64438717 -1 17 C-2.13116599 13.31880665 -2.00509382 10.05093823 -1.625 6.25 C-1.53476562 5.28578125 -1.44453125 4.3215625 -1.3515625 3.328125 C-1 1 -1 1 0 0 Z " fill="#0E417F" transform="translate(23,130)"/>
<path d="M0 0 C1.21467303 3.64401908 0.35670978 5.15811286 -1.04296875 8.609375 C-2.47502602 12.18659561 -3.68798714 15.83996249 -4.9375 19.484375 C-6 22 -6 22 -7.5 23.9453125 C-9.98063517 27.34326588 -10.76430459 31.32167147 -11.9375 35.3203125 C-13 38 -13 38 -16 40 C-15.25649909 35.70421699 -13.99821774 31.62782714 -12.625 27.5 C-12.31175781 26.52353516 -12.31175781 26.52353516 -11.9921875 25.52734375 C-10.71562986 21.67431915 -9.13008746 18.43706018 -7 15 C-6.11265422 12.97253337 -5.25899678 10.93002956 -4.4375 8.875 C-3.13397139 5.61820888 -1.95160079 2.92740118 0 0 Z " fill="#015CC1" transform="translate(105,122)"/>
<path d="M0 0 C0 0.99 0 1.98 0 3 C-0.825 3.2475 -1.65 3.495 -2.5 3.75 C-5.94740756 4.98121699 -9.04082704 6.48291978 -12.265625 8.1953125 C-14 9 -14 9 -16 9 C-15.67 10.98 -15.34 12.96 -15 15 C-18 15 -21 15 -24 15 C-24.99 15.495 -24.99 15.495 -26 16 C-26 14.68 -26 13.36 -26 12 C-22.04490505 9.99354751 -18.08540979 7.99593864 -14.125 6 C-12.99707031 5.42765625 -11.86914062 4.8553125 -10.70703125 4.265625 C-9.63066406 3.72421875 -8.55429687 3.1828125 -7.4453125 2.625 C-6.45031738 2.12226563 -5.45532227 1.61953125 -4.43017578 1.1015625 C-2 0 -2 0 0 0 Z " fill="#0B4EAE" transform="translate(62,21)"/>
<path d="M0 0 C0.66 0.66 1.32 1.32 2 2 C-0.10562248 6.99994891 -2.46421978 9.60188303 -6.8125 12.8125 C-7.82957031 13.58207031 -8.84664062 14.35164062 -9.89453125 15.14453125 C-13.06811325 17.04069659 -15.34957394 17.66715099 -19 18 C-19 17.01 -19 16.02 -19 15 C-16 13 -16 13 -13.4375 12.5 C-9.82075539 11.75810367 -9.02909197 10.04363795 -7 7 C-6.67 6.34 -6.34 5.68 -6 5 C-4.33333333 4 -2.66666667 3 -1 2 C-0.67 1.34 -0.34 0.68 0 0 Z " fill="#055AB3" transform="translate(110,164)"/>
<path d="M0 0 C-2.42177581 2.67669958 -4.64452029 4.61404099 -8 6 C-11.12982078 5.74363243 -14.07171549 5.143483 -17 4 C-17.33 3.34 -17.66 2.68 -18 2 C-16.02 2 -14.04 2 -12 2 C-11.67 1.01 -11.34 0.02 -11 -1 C-6.70700357 -2.26264601 -4.12168689 -1.62950412 0 0 Z " fill="#0A89DF" transform="translate(85,72)"/>
<path d="M0 0 C0.99 0 1.98 0 3 0 C3.33 1.65 3.66 3.3 4 5 C5.97746603 5.73080266 7.98072489 6.39421747 10 7 C12.33075929 6.04134491 12.33075929 6.04134491 14 3 C14.33 4.98 14.66 6.96 15 9 C11.43671221 10.27311801 9.48586939 9.72305799 6.015625 8.34765625 C5.08105469 7.98349609 4.14648438 7.61933594 3.18359375 7.24414062 C2.21550781 6.85419922 1.24742188 6.46425781 0.25 6.0625 C-1.22533203 5.48338867 -1.22533203 5.48338867 -2.73046875 4.89257812 C-5.15771542 3.93817531 -7.58044991 2.97371365 -10 2 C-6.61682513 1.02408417 -4.4342662 1.14143345 -1 2 C-0.67 1.34 -0.34 0.68 0 0 Z " fill="#0F5DB2" transform="translate(60,102)"/>
<path d="M0 0 C-1.2739589 2.03833424 -2.61061923 4.03852126 -4 6 C-4.66 6 -5.32 6 -6 6 C-5.7215625 6.928125 -5.7215625 6.928125 -5.4375 7.875 C-5 10 -5 10 -6 12 C-6.66 12 -7.32 12 -8 12 C-8 12.66 -8 13.32 -8 14 C-8.99 14 -9.98 14 -11 14 C-11.37090227 8.93100236 -10.5485572 5.41749914 -8 1 C-2.94845361 -1.4742268 -2.94845361 -1.4742268 0 0 Z " fill="#057CEE" transform="translate(132,79)"/>
<path d="M0 0 C0.33 0 0.66 0 1 0 C1 6.27 1 12.54 1 19 C-3.33094958 19 -5.27034861 18.03435531 -9 16 C-9 14.35 -9 12.7 -9 11 C-8.01 11.33 -7.02 11.66 -6 12 C-6 12.66 -6 13.32 -6 14 C-5.01 14.33 -4.02 14.66 -3 15 C-3 15.66 -3 16.32 -3 17 C-2.34 17 -1.68 17 -1 17 C-1.01160156 16.443125 -1.02320313 15.88625 -1.03515625 15.3125 C-1.09676433 10.10221657 -0.74999344 5.1562049 0 0 Z " fill="#0E5496" transform="translate(63,131)"/>
<path d="M0 0 C2.97 0.99 5.94 1.98 9 3 C8.67 3.66 8.34 4.32 8 5 C8.84884766 5.39832031 8.84884766 5.39832031 9.71484375 5.8046875 C10.44832031 6.15789063 11.18179688 6.51109375 11.9375 6.875 C12.66839844 7.22304688 13.39929688 7.57109375 14.15234375 7.9296875 C16 9 16 9 17 11 C-0.34010152 5.98984772 -0.34010152 5.98984772 -3 2 C-2.01 2 -1.02 2 0 2 C0 1.34 0 0.68 0 0 Z " fill="#0949A1" transform="translate(21,53)"/>
<path d="M0 0 C6.75 -0.125 6.75 -0.125 9 1 C8.62830496 3.63002402 8.2921315 4.74520369 6.2578125 6.51953125 C5.55398437 6.94621094 4.85015625 7.37289062 4.125 7.8125 C3.42632812 8.25207031 2.72765625 8.69164063 2.0078125 9.14453125 C0 10 0 10 -3 9 C-2.01 8.67 -1.02 8.34 0 8 C0.79953138 4.71303767 1.09658936 3.28976808 0 0 Z " fill="#1073C6" transform="translate(91,60)"/>
<path d="M0 0 C0.94875 0.04125 1.8975 0.0825 2.875 0.125 C-1.7797974 5.26132817 -7.32042561 9.35810229 -13.125 13.125 C-13.785 13.125 -14.445 13.125 -15.125 13.125 C-15.125 12.135 -15.125 11.145 -15.125 10.125 C-14.485625 9.83625 -13.84625 9.5475 -13.1875 9.25 C-10.97293921 8.29676549 -10.97293921 8.29676549 -10.125 6.125 C-9.135 6.125 -8.145 6.125 -7.125 6.125 C-6.691875 5.196875 -6.691875 5.196875 -6.25 4.25 C-4.49257947 0.93042788 -3.84628281 0.15385131 0 0 Z " fill="#1053A7" transform="translate(93.125,180.875)"/>
<path d="M0 0 C0 0.66 0 1.32 0 2 C-0.99 2 -1.98 2 -3 2 C-3.2475 2.61875 -3.495 3.2375 -3.75 3.875 C-5.22879539 6.38895216 -6.37921165 6.8534051 -9 8 C-9.66 8.66 -10.32 9.32 -11 10 C-13.1640625 10.4140625 -13.1640625 10.4140625 -15.625 10.625 C-16.44226563 10.69976562 -17.25953125 10.77453125 -18.1015625 10.8515625 C-18.72804688 10.90054688 -19.35453125 10.94953125 -20 11 C-16.32043588 7.87961917 -12.56596709 5.51980912 -8.3125 3.25 C-7.17425781 2.63640625 -6.03601563 2.0228125 -4.86328125 1.390625 C-2 0 -2 0 0 0 Z " fill="#EBAD24" transform="translate(139,50)"/>
<path d="M0 0 C0.33 1.32 0.66 2.64 1 4 C1.33 4.99 1.66 5.98 2 7 C2.33 6.34 2.66 5.68 3 5 C4.65 5 6.3 5 8 5 C8 4.34 8 3.68 8 3 C9.32 3.33 10.64 3.66 12 4 C9.73595458 5.36680153 7.46498979 6.71844445 5.1875 8.0625 C4.54490234 8.45244141 3.90230469 8.84238281 3.24023438 9.24414062 C1.5371085 10.24130759 -0.22945858 11.12812687 -2 12 C-2.99 11.67 -3.98 11.34 -5 11 C-3.35 7.37 -1.7 3.74 0 0 Z " fill="#CE9F39" transform="translate(99,83)"/>
<path d="M0 0 C0.66 0.33 1.32 0.66 2 1 C1.67 1.66 1.34 2.32 1 3 C0.01 3 -0.98 3 -2 3 C-2 3.99 -2 4.98 -2 6 C-3.11375 6.226875 -4.2275 6.45375 -5.375 6.6875 C-9.16038373 7.60623658 -9.16038373 7.60623658 -10.4375 10.625 C-10.7159375 11.800625 -10.7159375 11.800625 -11 13 C-11.66 13 -12.32 13 -13 13 C-13.144375 13.7425 -13.28875 14.485 -13.4375 15.25 C-13.90187492 17.52027739 -14.41863569 19.75759479 -15 22 C-15.66 22 -16.32 22 -17 22 C-14.34929849 11.83897754 -11.44011946 6.44897279 -2.2421875 1.00390625 C-1.13230469 0.50697266 -1.13230469 0.50697266 0 0 Z " fill="#E4A832" transform="translate(117,61)"/>
<path d="M0 0 C0.99 0 1.98 0 3 0 C1.77777695 3.80247171 -0.59558978 5.46679769 -4.0625 7.30859375 C-8.08585634 8.74434793 -11.66618044 7.58140853 -15.4375 5.9375 C-15.953125 5.628125 -16.46875 5.31875 -17 5 C-13.93109813 3.46554906 -11.29905734 4.45015711 -8 5 C-8 4.34 -8 3.68 -8 3 C-7.34 3 -6.68 3 -6 3 C-6 3.66 -6 4.32 -6 5 C-5.34 4.34 -4.68 3.68 -4 3 C-3.01 3 -2.02 3 -1 3 C-0.67 2.01 -0.34 1.02 0 0 Z " fill="#F1AB21" transform="translate(177,19)"/>
<path d="M0 0 C0.33 0.99 0.66 1.98 1 3 C0.01 3 -0.98 3 -2 3 C-2.33 3.99 -2.66 4.98 -3 6 C-5.31 5.67 -7.62 5.34 -10 5 C-10.33 3.68 -10.66 2.36 -11 1 C-3.375 -1.125 -3.375 -1.125 0 0 Z " fill="#FAAC06" transform="translate(147,33)"/>
<path d="M0 0 C3.17106439 -0.08808512 5.99083491 -0.07470182 9 1 C9.33 1.66 9.66 2.32 10 3 C11.98 3 13.96 3 16 3 C16 3.66 16 4.32 16 5 C15.34 5 14.68 5 14 5 C14.33 5.99 14.66 6.98 15 8 C9.52067211 6.45454854 4.88570819 3.84456788 0 1 C0 0.67 0 0.34 0 0 Z " fill="#084892" transform="translate(30,134)"/>
<path d="M0 0 C0.66 0 1.32 0 2 0 C2 0.66 2 1.32 2 2 C3.32 2 4.64 2 6 2 C6 3.32 6 4.64 6 6 C3.25 7.1875 3.25 7.1875 0 8 C-2.375 6.625 -2.375 6.625 -4 5 C-2.71937515 3.2925002 -1.38232443 1.62626404 0 0 Z " fill="#F9AC08" transform="translate(131,36)"/>
<path d="M0 0 C1.231394 2.46278801 1.07159196 4.2795055 1 7 C0.01 7 -0.98 7 -2 7 C-1.67 7.66 -1.34 8.32 -1 9 C-0.34 8.67 0.32 8.34 1 8 C0.96744792 9.98567708 0.93489583 11.97135417 0.90234375 13.95703125 C0.91736783 16.20305461 0.91736783 16.20305461 2 19 C1.34 19 0.68 19 0 19 C-2.84109292 15.50327025 -3.45793474 12.49064494 -3.3046875 8.00390625 C-2.8448546 4.97962064 -1.55905869 2.59843115 0 0 Z " fill="#EDB226" transform="translate(158,4)"/>
<path d="M0 0 C0.80824219 0.28746094 1.61648437 0.57492188 2.44921875 0.87109375 C3.06410156 1.09925781 3.67898437 1.32742187 4.3125 1.5625 C4.3125 2.5525 4.3125 3.5425 4.3125 4.5625 C3.054375 4.583125 1.79625 4.60375 0.5 4.625 C-0.20769531 4.63660156 -0.91539063 4.64820313 -1.64453125 4.66015625 C-3.6875 4.5625 -3.6875 4.5625 -6.6875 3.5625 C-7.375 1.5 -7.375 1.5 -7.6875 -0.4375 C-4.20878379 -1.59707207 -3.34530355 -1.21206651 0 0 Z " fill="#0961DD" transform="translate(108.6875,24.4375)"/>
<path d="M0 0 C-0.33 0.99 -0.66 1.98 -1 3 C-2.92578125 3.66015625 -2.92578125 3.66015625 -5.3125 4.0625 C-8.58529202 4.63050523 -11.04544995 5.50736869 -14 7 C-16.75 7.125 -16.75 7.125 -19 7 C-16.71828052 4.38187316 -14.80608328 3.37784526 -11.5 2.375 C-10.33984375 2.01535156 -10.33984375 2.01535156 -9.15625 1.6484375 C-8.4446875 1.43445313 -7.733125 1.22046875 -7 1 C-4 0 -4 0 0 0 Z " fill="#0984ED" transform="translate(143,73)"/>
<path d="M0 0 C0.66 0 1.32 0 2 0 C1.67 1.65 1.34 3.3 1 5 C-0.65 5 -2.3 5 -4 5 C-4 5.66 -4 6.32 -4 7 C-9.45769231 10.10096154 -9.45769231 10.10096154 -12.203125 9.58984375 C-12.79609375 9.39519531 -13.3890625 9.20054688 -14 9 C-9.46330032 5.98320986 -5.31027254 3.46032495 0 2 C0 1.34 0 0.68 0 0 Z " fill="#E7B634" transform="translate(167,32)"/>
<path d="M0 0 C0.99 0.66 1.98 1.32 3 2 C2.34 2 1.68 2 1 2 C1.33 3.98 1.66 5.96 2 8 C-1.92646477 6.69117841 -4.27774921 5.1255472 -7 2 C-7 1.67 -7 1.34 -7 1 C-5.5459375 1.0309375 -5.5459375 1.0309375 -4.0625 1.0625 C-1.12534105 1.35618499 -1.12534105 1.35618499 0 0 Z " fill="#06428A" transform="translate(35,173)"/>
<path d="M0 0 C-0.33 1.98 -0.66 3.96 -1 6 C-1.66 6 -2.32 6 -3 6 C-5.19524174 6.48020913 -6.9838142 6.9919071 -9 8 C-8.67 6.02 -8.34 4.04 -8 2 C-2.25 0 -2.25 0 0 0 Z " fill="#0463C5" transform="translate(103,94)"/>
<path d="M0 0 C4.875 0.875 4.875 0.875 6 2 C6.04092937 4.33297433 6.04241723 6.66705225 6 9 C5.34 9 4.68 9 4 9 C4 8.34 4 7.68 4 7 C2.68 6.67 1.36 6.34 0 6 C0.66 5.67 1.32 5.34 2 5 C1.34 3.35 0.68 1.7 0 0 Z M-3 7 C-2.01 7.495 -2.01 7.495 -1 8 C-1.99 8.495 -1.99 8.495 -3 9 C-3 8.34 -3 7.68 -3 7 Z " fill="#0B63CB" transform="translate(67,84)"/>
<path d="M0 0 C1 2 1 2 0.1875 5 C-1 8 -1 8 -3 10 C-2.9175 10.763125 -2.835 11.52625 -2.75 12.3125 C-3 15 -3 15 -4.328125 16.4375 C-5.84068561 17.68147508 -7.41760155 18.8461678 -9 20 C-7.66666667 16 -6.33333333 12 -5 8 C-4.34 7.67 -3.68 7.34 -3 7 C-1.94647157 4.69034152 -0.94280904 2.3570226 0 0 Z " fill="#0258B9" transform="translate(88,162)"/>
<path d="M0 0 C0.66 0.66 1.32 1.32 2 2 C0.68 2 -0.64 2 -2 2 C-1.67 3.32 -1.34 4.64 -1 6 C-5.455 5.01 -5.455 5.01 -10 4 C-10 3.34 -10 2.68 -10 2 C-6.60535554 -0.08901197 -3.95158471 -0.34361606 0 0 Z " fill="#0D59C7" transform="translate(79,14)"/>
<path d="M0 0 C0.99 0 1.98 0 3 0 C3 0.66 3 1.32 3 2 C3.99 2 4.98 2 6 2 C6.33 2.66 6.66 3.32 7 4 C8.98 4 10.96 4 13 4 C13 4.99 13 5.98 13 7 C13.99 7.33 14.98 7.66 16 8 C14 9 14 9 10.7421875 8.00390625 C9.4502948 7.53110016 8.16131362 7.05028031 6.875 6.5625 C6.21628906 6.31951172 5.55757812 6.07652344 4.87890625 5.82617188 C3.25008662 5.22421679 1.62470425 4.61297588 0 4 C0 2.68 0 1.36 0 0 Z " fill="#0F3B81" transform="translate(5,49)"/>
<path d="M0 0 C2.84550012 0.66010476 5.52325999 1.51724966 8.25 2.5625 C8.95640625 2.83191406 9.6628125 3.10132813 10.390625 3.37890625 C10.92171875 3.58386719 11.4528125 3.78882813 12 4 C11.375 5.875 11.375 5.875 10 8 C6.875 9.25 6.875 9.25 4 10 C4.33 9.01 4.66 8.02 5 7 C5.99 7 6.98 7 8 7 C8 6.01 8 5.02 8 4 C5.36 3.67 2.72 3.34 0 3 C0 2.01 0 1.02 0 0 Z " fill="#2A77C4" transform="translate(113,27)"/>
<path d="M0 0 C1.4606285 2.64738916 2 3.89448334 2 7 C1.34 7 0.68 7 0 7 C-0.33 7.99 -0.66 8.98 -1 10 C-3.0625 10.6875 -3.0625 10.6875 -5 11 C-5 9.68 -5 8.36 -5 7 C-4.34 7 -3.68 7 -3 7 C-2.690625 6.030625 -2.38125 5.06125 -2.0625 4.0625 C-1 1 -1 1 0 0 Z " fill="#035CBB" transform="translate(92,107)"/>
<path d="M0 0 C0.99 0.33 1.98 0.66 3 1 C2.34 1 1.68 1 1 1 C0.90203125 1.6290625 0.8040625 2.258125 0.703125 2.90625 C-0.35137979 8.94238089 -2.02467136 13.64440845 -5 19 C-5.66 19 -6.32 19 -7 19 C-4.94235079 12.54646385 -2.57616518 6.2638737 0 0 Z " fill="#145EA3" transform="translate(94,95)"/>
<path d="M0 0 C2.10448938 0.14109986 4.2085877 0.28804175 6.3125 0.4375 C7.48425781 0.51871094 8.65601563 0.59992188 9.86328125 0.68359375 C13 1 13 1 16 2 C16 3.32 16 4.64 16 6 C12.21760329 5.34309381 8.78158474 4.279869 5.1875 2.9375 C4.21167969 2.57527344 3.23585937 2.21304688 2.23046875 1.83984375 C1.49441406 1.56269531 0.75835937 1.28554687 0 1 C0 0.67 0 0.34 0 0 Z " fill="#1050A9" transform="translate(39,64)"/>
<path d="M0 0 C1.65 0 3.3 0 5 0 C4.34 1.32 3.68 2.64 3 4 C4.093125 3.938125 5.18625 3.87625 6.3125 3.8125 C10 4 10 4 11.9375 5.5 C12.288125 5.995 12.63875 6.49 13 7 C11.02 7.99 11.02 7.99 9 9 C9 8.01 9 7.02 9 6 C6.03 5.67 3.06 5.34 0 5 C0 3.35 0 1.7 0 0 Z " fill="#839888" transform="translate(91,55)"/>
<path d="M0 0 C0 0.99 0 1.98 0 3 C-0.825 3.2475 -1.65 3.495 -2.5 3.75 C-5.93287225 4.9760258 -8.91184702 6.4980978 -12.0703125 8.29296875 C-14.45355721 9.16618189 -15.61098062 8.69175425 -18 8 C-15.3773768 6.66180502 -12.75213401 5.3292849 -10.125 4 C-9.00544922 3.42765625 -9.00544922 3.42765625 -7.86328125 2.84375 C-7.14785156 2.4828125 -6.43242188 2.121875 -5.6953125 1.75 C-5.03547363 1.41484375 -4.37563477 1.0796875 -3.69580078 0.734375 C-2 0 -2 0 0 0 Z " fill="#1553A5" transform="translate(62,21)"/>
<path d="M0 0 C1.32 0.66 2.64 1.32 4 2 C2.875 3.5 2.875 3.5 1 5 C-3.21284637 5.45791808 -6.18791906 4.79392044 -10 3 C-6.83783053 1.1261218 -4.63834261 0.90166642 -1 1 C-0.67 0.67 -0.34 0.34 0 0 Z " fill="#0389EB" transform="translate(72,69)"/>
<path d="M0 0 C0.33 0.99 0.66 1.98 1 3 C-1.76223278 5.76223278 -4.20706617 5.57856291 -8 6 C-8 6.66 -8 7.32 -8 8 C-12.455 9.485 -12.455 9.485 -17 11 C-17 10.34 -17 9.68 -17 9 C-16.01 9 -15.02 9 -14 9 C-14 8.34 -14 7.68 -14 7 C-13.01 7 -12.02 7 -11 7 C-11 6.34 -11 5.68 -11 5 C-7.7 4.34 -4.4 3.68 -1 3 C-0.67 2.01 -0.34 1.02 0 0 Z " fill="#C9B247" transform="translate(157,59)"/>
<path d="M0 0 C0 0.66 0 1.32 0 2 C-0.99 2 -1.98 2 -3 2 C-3 2.66 -3 3.32 -3 4 C-3.639375 4.268125 -4.27875 4.53625 -4.9375 4.8125 C-7.33131686 5.88667752 -7.33131686 5.88667752 -8 9 C-8.99 8.67 -9.98 8.34 -11 8 C-10.67 6.68 -10.34 5.36 -10 4 C-9.34 4 -8.68 4 -8 4 C-7.67 3.01 -7.34 2.02 -7 1 C-4.52260646 0.09162237 -2.66420516 0 0 0 Z " fill="#0267EA" transform="translate(95,45)"/>
<path d="M0 0 C8.57142857 2 8.57142857 2 12 4 C11.67 4.66 11.34 5.32 11 6 C8.2831002 6.88115669 6.5762219 7.16463483 3.8125 6.375 C1.44224093 4.57687243 0.88234059 2.79407853 0 0 Z " fill="#07448C" transform="translate(27,150)"/>
<path d="M0 0 C0.99 0 1.98 0 3 0 C3 3.3 3 6.6 3 10 C2.01 9.67 1.02 9.34 0 9 C-0.99 9.495 -0.99 9.495 -2 10 C-1.34 6.7 -0.68 3.4 0 0 Z " fill="#0259B0" transform="translate(84,123)"/>
<path d="M0 0 C0 0.99 0 1.98 0 3 C-0.99 3 -1.98 3 -3 3 C-3 3.99 -3 4.98 -3 6 C-6.3 6.66 -9.6 7.32 -13 8 C-10.61318325 5.61318325 -8.7414492 4.05776184 -5.9375 2.3125 C-5.24527344 1.87550781 -4.55304688 1.43851562 -3.83984375 0.98828125 C-2 0 -2 0 0 0 Z " fill="#378CB0" transform="translate(147,67)"/>
<path d="M0 0 C3.375 -0.125 3.375 -0.125 7 0 C7.66 0.66 8.32 1.32 9 2 C7.02 2.66 5.04 3.32 3 4 C3 4.66 3 5.32 3 6 C2.01 6 1.02 6 0 6 C0 4.02 0 2.04 0 0 Z " fill="#016FF5" transform="translate(112,30)"/>
<path d="M0 0 C1 3 1 3 0.328125 4.796875 C-0.02765625 5.44140625 -0.3834375 6.0859375 -0.75 6.75 C-2.71524106 10.43482698 -4.39402435 14.14565845 -6 18 C-6.33 18 -6.66 18 -7 18 C-7 16.02 -7 14.04 -7 12 C-6.34 12 -5.68 12 -5 12 C-4.80664062 11.30132812 -4.61328125 10.60265625 -4.4140625 9.8828125 C-4.15367188 8.97273437 -3.89328125 8.06265625 -3.625 7.125 C-3.36976562 6.22007812 -3.11453125 5.31515625 -2.8515625 4.3828125 C-2 2 -2 2 0 0 Z " fill="#105EB4" transform="translate(121,141)"/>
<path d="M0 0 C-1.15173355 2.46800047 -2.04783565 4.04783565 -4 6 C-6.65537372 6.56520003 -9.29144713 6.73788198 -12 7 C-9.20232475 3.70861735 -4.40323273 0 0 0 Z " fill="#E0A331" transform="translate(122,41)"/>
<path d="M0 0 C-1.26599039 3.79797116 -2.62454766 4.89971854 -6 7 C-9.3125 6.75 -9.3125 6.75 -12 6 C-8.59780735 3.25207517 -4.51535412 0 0 0 Z " fill="#12499A" transform="translate(36,34)"/>
<path d="M0 0 C-0.350625 0.556875 -0.70125 1.11375 -1.0625 1.6875 C-2.21845993 4.53886783 -1.80967438 6.08517222 -1 9 C-1.99 9 -2.98 9 -4 9 C-4 8.01 -4 7.02 -4 6 C-4.66 5.67 -5.32 5.34 -6 5 C-6 3.33333333 -6 1.66666667 -6 0 C-2.25 -1.125 -2.25 -1.125 0 0 Z " fill="#015BE1" transform="translate(83,16)"/>
<path d="M0 0 C0.86625 0.3403125 0.86625 0.3403125 1.75 0.6875 C1.75 2.0075 1.75 3.3275 1.75 4.6875 C0.1 5.0175 -1.55 5.3475 -3.25 5.6875 C-3.25 5.0275 -3.25 4.3675 -3.25 3.6875 C-4.24 3.3575 -5.23 3.0275 -6.25 2.6875 C-2.80384615 -0.38942308 -2.80384615 -0.38942308 0 0 Z " fill="#0352B5" transform="translate(45.25,94.3125)"/>
<path d="M0 0 C0 0.66 0 1.32 0 2 C1.98 2.66 3.96 3.32 6 4 C6 4.99 6 5.98 6 7 C5.34 7 4.68 7 4 7 C4 6.34 4 5.68 4 5 C-0.12168689 3.37049588 -2.70700357 2.73735399 -7 4 C-3.17391304 0 -3.17391304 0 0 0 Z " fill="#E5AF38" transform="translate(157,22)"/>
<path d="M0 0 C3.77545388 1.09068668 6.47043472 1.9083091 9 5 C6.36 5.33 3.72 5.66 1 6 C1.33 5.01 1.66 4.02 2 3 C1.34 2.67 0.68 2.34 0 2 C0 1.34 0 0.68 0 0 Z " fill="#104C93" transform="translate(40,118)"/>
<path d="M0 0 C0.66 0 1.32 0 2 0 C1.44894091 3.9492568 0.61064629 7.34920174 -1 11 C-3 9 -3 9 -3.125 6.375 C-3.08375 5.59125 -3.0425 4.8075 -3 4 C-2.01 4 -1.02 4 0 4 C0 2.68 0 1.36 0 0 Z " fill="#EFB424" transform="translate(164,39)"/>
<path d="M0 0 C1.32 0.33 2.64 0.66 4 1 C4 2.32 4 3.64 4 5 C2.35 5.66 0.7 6.32 -1 7 C-1.33 5.68 -1.66 4.36 -2 3 C-1.34 3 -0.68 3 0 3 C0 2.01 0 1.02 0 0 Z " fill="#0163E2" transform="translate(96,22)"/>
<path d="M0 0 C1.32 0.66 2.64 1.32 4 2 C2.54735962 2.8638129 1.0876837 3.71580454 -0.375 4.5625 C-1.59316406 5.27599609 -1.59316406 5.27599609 -2.8359375 6.00390625 C-3.55007812 6.33261719 -4.26421875 6.66132812 -5 7 C-5.66 6.67 -6.32 6.34 -7 6 C-6.67 5.34 -6.34 4.68 -6 4 C-5.34 4 -4.68 4 -4 4 C-4 3.34 -4 2.68 -4 2 C-2.68 2 -1.36 2 0 2 C0 1.34 0 0.68 0 0 Z " fill="#2380CF" transform="translate(103,42)"/>
<path d="M0 0 C0.66 0.66 1.32 1.32 2 2 C-1.61328125 6.6875 -1.61328125 6.6875 -3 8 C-3.99 8 -4.98 8 -6 8 C-6.33 8.66 -6.66 9.32 -7 10 C-6.8125 7.6875 -6.8125 7.6875 -6 5 C-3.5 3.3125 -3.5 3.3125 -1 2 C-0.67 1.34 -0.34 0.68 0 0 Z " fill="#055BBF" transform="translate(110,164)"/>
<path d="M0 0 C0.99 0.66 1.98 1.32 3 2 C2.67 2.99 2.34 3.98 2 5 C-1.5625 6.1875 -1.5625 6.1875 -5 7 C-5 6.34 -5 5.68 -5 5 C-4.34 5 -3.68 5 -3 5 C-3 4.34 -3 3.68 -3 3 C-2.34 3 -1.68 3 -1 3 C-0.67 2.01 -0.34 1.02 0 0 Z " fill="#FBA701" transform="translate(117,46)"/>
<path d="M0 0 C0.99 0 1.98 0 3 0 C1.549046 3.82524236 -0.38181932 5.19090966 -4 7 C-4.66 7 -5.32 7 -6 7 C-6 5 -6 5 -4 3 C-3.01 3 -2.02 3 -1 3 C-0.67 2.01 -0.34 1.02 0 0 Z " fill="#EDB727" transform="translate(177,19)"/>
<path d="M0 0 C3.63 1.98 7.26 3.96 11 6 C8 7 8 7 4.375 5.8125 C3.26125 5.214375 2.1475 4.61625 1 4 C0.67 2.68 0.34 1.36 0 0 Z " fill="#124583" transform="translate(49,160)"/>
<path d="M0 0 C0.99 0.33 1.98 0.66 3 1 C1.25 7.75 1.25 7.75 -1 10 C-2.23333333 5.56 -2.23333333 5.56 -1.0625 2.75 C-0.711875 2.1725 -0.36125 1.595 0 1 C0 0.67 0 0.34 0 0 Z " fill="#066FEC" transform="translate(130,111)"/>
<path d="M0 0 C4.21878192 -0.19622241 7.17010894 0.19769832 11 2 C10.67 2.66 10.34 3.32 10 4 C8.51882199 3.71872579 7.04006751 3.42466268 5.5625 3.125 C4.73878906 2.96257812 3.91507812 2.80015625 3.06640625 2.6328125 C2.38449219 2.42398438 1.70257813 2.21515625 1 2 C0.67 1.34 0.34 0.68 0 0 Z " fill="#1D81C6" transform="translate(67,74)"/>
<path d="M0 0 C-2.35277269 2.72426311 -4.62496331 3.8141763 -8 5 C-7.625 3.0625 -7.625 3.0625 -7 1 C-4.53721199 -0.231394 -2.7204945 -0.07159196 0 0 Z " fill="#116FD8" transform="translate(95,49)"/>
<path d="M0 0 C0.33 0.99 0.66 1.98 1 3 C-4.75 8 -4.75 8 -7 8 C-7 7.34 -7 6.68 -7 6 C-6.34 6 -5.68 6 -5 6 C-5 5.34 -5 4.68 -5 4 C-4.01 4 -3.02 4 -2 4 C-1.34 2.68 -0.68 1.36 0 0 Z " fill="#165CA8" transform="translate(109,168)"/>
<path d="M0 0 C1 2 1 2 0.25 5.5 C-1 9 -1 9 -4 11 C-3.39301257 6.87248551 -1.96189209 3.6678852 0 0 Z " fill="#035CC2" transform="translate(93,151)"/>
<path d="M0 0 C5.75 1.875 5.75 1.875 8 3 C8 3.66 8 4.32 8 5 C5.36 4.34 2.72 3.68 0 3 C0 2.01 0 1.02 0 0 Z " fill="#0D4C85" transform="translate(40,156)"/>
<path d="M0 0 C0.99 0 1.98 0 3 0 C2.34 2.31 1.68 4.62 1 7 C0.01 6.01 -0.98 5.02 -2 4 C-1 1 -1 1 0 0 Z " fill="#0E6AD1" transform="translate(125,127)"/>
<path d="M0 0 C-0.66 1.65 -1.32 3.3 -2 5 C-4.31 5 -6.62 5 -9 5 C-2.87096774 0 -2.87096774 0 0 0 Z " fill="#2E6794" transform="translate(106,90)"/>
<path d="M0 0 C2.31 0 4.62 0 7 0 C7 0.99 7 1.98 7 3 C5.02 3.33 3.04 3.66 1 4 C0.67 2.68 0.34 1.36 0 0 Z " fill="#024ABB" transform="translate(37,61)"/>
<path d="M0 0 C-4.95 2.475 -4.95 2.475 -10 5 C-9.67 3.68 -9.34 2.36 -9 1 C-5.3931275 -0.64661571 -3.8148779 -1.27162597 0 0 Z " fill="#2778C2" transform="translate(117,38)"/>
<path d="M0 0 C1.32 0 2.64 0 4 0 C3.67 1.65 3.34 3.3 3 5 C2.01 5.33 1.02 5.66 0 6 C-0.38218767 4.34385343 -0.71395102 2.67542976 -1 1 C-0.67 0.67 -0.34 0.34 0 0 Z " fill="#0862D2" transform="translate(120,136)"/>
<path d="M0 0 C0.66 0.33 1.32 0.66 2 1 C2.625 3.5625 2.625 3.5625 3 6 C2.01 6.66 1.02 7.32 0 8 C-0.98120464 4.94736336 -0.98120464 3.05263664 0 0 Z " fill="#F7A710" transform="translate(100,83)"/>
<path d="M0 0 C1.32 0 2.64 0 4 0 C4 1.65 4 3.3 4 5 C3.34 5 2.68 5 2 5 C1.67 4.34 1.34 3.68 1 3 C-0.32 3.33 -1.64 3.66 -3 4 C-3 3.34 -3 2.68 -3 2 C-2.01 2 -1.02 2 0 2 C0 1.34 0 0.68 0 0 Z " fill="#0387F7" transform="translate(147,68)"/>
<path d="M0 0 C0.66 0.33 1.32 0.66 2 1 C1.67 1.66 1.34 2.32 1 3 C0.01 3 -0.98 3 -2 3 C-2 3.99 -2 4.98 -2 6 C-3.32 6 -4.64 6 -6 6 C-5 3 -5 3 -2.5625 1.25 C-1.716875 0.8375 -0.87125 0.425 0 0 Z " fill="#EFAD26" transform="translate(117,61)"/>
<path d="M0 0 C-2.00773956 2.00773956 -3.36873617 2.99392854 -6 4 C-8.25 3.625 -8.25 3.625 -10 3 C-6.68152292 -0.06320961 -4.44849969 -0.3033068 0 0 Z " fill="#ECB427" transform="translate(163,38)"/>
<path d="M0 0 C0.99 0.33 1.98 0.66 3 1 C3.66 0.67 4.32 0.34 5 0 C5 1.98 5 3.96 5 6 C3 6 3 6 1.375 4.6875 C0 3 0 3 0 0 Z " fill="#0259B1" transform="translate(57,142)"/>
<path d="M0 0 C3.3 1.65 6.6 3.3 10 5 C6 6 6 6 2.75 4.1875 C1.8425 3.465625 0.935 2.74375 0 2 C0 1.34 0 0.68 0 0 Z " fill="#0E407D" transform="translate(30,112)"/>
<path d="M0 0 C0.66 0.33 1.32 0.66 2 1 C-1.32307692 4.93846154 -1.32307692 4.93846154 -4.75 5.25 C-5.4925 5.1675 -6.235 5.085 -7 5 C-4.88437775 2.67281553 -2.94982021 1.14186589 0 0 Z " fill="#3A85AE" transform="translate(131,75)"/>
<path d="M0 0 C-0.39803561 2.88575819 -0.79009069 3.82189513 -3.0625 5.75 C-3.701875 6.1625 -4.34125 6.575 -5 7 C-5.1875 4.625 -5.1875 4.625 -5 2 C-2 0 -2 0 0 0 Z " fill="#EBB51D" transform="translate(160,55)"/>
<path d="M0 0 C0.99 0.33 1.98 0.66 3 1 C2.67 2.65 2.34 4.3 2 6 C1.01 6 0.02 6 -1 6 C-0.67 4.02 -0.34 2.04 0 0 Z " fill="#F9AA09" transform="translate(103,51)"/>
<path d="M0 0 C0.66 0.33 1.32 0.66 2 1 C1.01 2.485 1.01 2.485 0 4 C-3.625 4.6875 -3.625 4.6875 -7 5 C-4.88437775 2.67281553 -2.94982021 1.14186589 0 0 Z " fill="#E2A543" transform="translate(129,36)"/>
</svg>
